<svg xmlns="http://www.w3.org/2000/svg" xmlns:xlink="http://www.w3.org/1999/xlink" width="200" zoomAndPan="magnify" viewBox="0 0 363 80.249996" height="50" preserveAspectRatio="xMidYMid meet" version="1.0"><defs><g/><clipPath id="f24a9b40bc"><path d="M 3 13 L 65.914062 13 L 65.914062 76 L 3 76 Z M 3 13 " clip-rule="nonzero"/></clipPath><clipPath id="8430a23bde"><path d="M 2 13 L 65.914062 13 L 65.914062 77 L 2 77 Z M 2 13 " clip-rule="nonzero"/></clipPath><clipPath id="687dfc43e0"><path d="M 7 10 L 69.730469 10 L 69.730469 73 L 7 73 Z M 7 10 " clip-rule="nonzero"/></clipPath><clipPath id="ac85b0ca2a"><path d="M 5.496094 9 L 69 9 L 69 73 L 5.496094 73 Z M 5.496094 9 " clip-rule="nonzero"/></clipPath><clipPath id="3c163c2af6"><path d="M 6 10 L 69.730469 10 L 69.730469 74 L 6 74 Z M 6 10 " clip-rule="nonzero"/></clipPath><clipPath id="0621d48109"><path d="M 3.339844 10.039062 L 67 10.039062 L 67 74 L 3.339844 74 Z M 3.339844 10.039062 " clip-rule="nonzero"/></clipPath><clipPath id="3836b2f5dd"><path d="M 4 12 L 67.574219 12 L 67.574219 75 L 4 75 Z M 4 12 " clip-rule="nonzero"/></clipPath><clipPath id="066f26b7c2"><path d="M 3 9 L 65.914062 9 L 65.914062 72 L 3 72 Z M 3 9 " clip-rule="nonzero"/></clipPath><clipPath id="2a2b1762d2"><path d="M 2 9 L 65.914062 9 L 65.914062 73 L 2 73 Z M 2 9 " clip-rule="nonzero"/></clipPath><clipPath id="82706d83d8"><path d="M 24.765625 28.519531 L 46.753906 28.519531 L 46.753906 58.265625 L 24.765625 58.265625 Z M 24.765625 28.519531 " clip-rule="nonzero"/></clipPath></defs><path fill="#34a853" d="M 63.878906 44.609375 C 63.863281 51.003906 61.734375 57.34375 57.960938 62.492188 C 54.367188 67.414062 49.3125 71.210938 43.585938 73.273438 C 37.644531 75.417969 31.058594 75.664062 24.976562 74 C 19.089844 72.371094 13.746094 68.96875 9.769531 64.324219 C 5.753906 59.625 3.210938 53.75 2.570312 47.601562 C 1.886719 41.027344 3.59375 34.265625 7.105469 28.691406 C 10.34375 23.539062 15.113281 19.410156 20.671875 16.9375 C 26.464844 14.371094 33.023438 13.660156 39.242188 14.917969 C 45.226562 16.117188 50.789062 19.152344 55.066406 23.511719 C 59.367188 27.898438 62.304688 33.539062 63.398438 39.59375 C 63.714844 41.316406 63.878906 43.0625 63.878906 44.8125 C 63.878906 45.277344 63.890625 44.828125 63.878906 44.609375 C 63.863281 38.335938 62.085938 32.214844 58.535156 27.023438 C 54.957031 21.804688 49.777344 17.730469 43.847656 15.53125 C 37.699219 13.25 30.839844 13.003906 24.527344 14.847656 C 18.433594 16.625 12.964844 20.3125 9.019531 25.300781 C 5.054688 30.300781 2.746094 36.476562 2.433594 42.84375 C 2.132812 48.953125 3.402344 55.019531 6.460938 60.335938 C 9.59375 65.785156 14.402344 70.226562 20.097656 72.90625 C 26.054688 75.707031 32.886719 76.5 39.335938 75.171875 C 45.554688 73.902344 51.292969 70.664062 55.625 66.019531 C 59.984375 61.359375 62.8125 55.359375 63.632812 49.035156 C 63.808594 47.628906 63.890625 46.21875 63.890625 44.800781 C 63.890625 44.582031 63.878906 44.128906 63.878906 44.609375 Z M 63.878906 44.609375 " fill-opacity="1" fill-rule="nonzero"/><g clip-path="url(#f24a9b40bc)"><path fill="#34a853" d="M 41.578125 74.285156 C 35.472656 75.707031 29.023438 75.269531 23.1875 72.960938 C 17.515625 70.707031 12.570312 66.769531 9.128906 61.726562 C 5.453125 56.359375 3.414062 49.648438 3.8125 43.117188 C 4.195312 36.957031 6.488281 30.972656 10.289062 26.105469 C 18.089844 16.132812 31.660156 11.910156 43.738281 15.722656 C 49.488281 17.539062 54.65625 21.050781 58.441406 25.75 C 62.46875 30.738281 64.847656 36.96875 65.203125 43.363281 C 65.914062 56.042969 57.6875 68.191406 46.03125 72.878906 C 44.585938 73.453125 43.09375 73.917969 41.578125 74.285156 C 41.523438 74.300781 41.621094 74.953125 41.578125 74.96875 C 47.890625 73.453125 53.617188 69.996094 57.851562 65.0625 C 61.992188 60.238281 64.5625 54.144531 65.136719 47.820312 C 65.679688 41.78125 64.601562 35.628906 61.816406 30.234375 C 58.890625 24.5625 54.175781 19.902344 48.492188 16.992188 C 42.78125 14.054688 36.195312 12.988281 29.839844 13.972656 C 23.390625 14.972656 17.339844 18.03125 12.722656 22.664062 C 8.253906 27.160156 5.234375 33.019531 4.179688 39.277344 C 3.183594 45.210938 3.851562 51.46875 6.191406 57.015625 C 8.664062 62.890625 12.992188 67.90625 18.433594 71.253906 C 23.898438 74.601562 30.375 76.199219 36.769531 75.707031 C 38.394531 75.582031 39.992188 75.324219 41.578125 74.953125 C 41.632812 74.953125 41.539062 74.300781 41.578125 74.285156 Z M 41.578125 74.285156 " fill-opacity="1" fill-rule="nonzero"/></g><path fill="#34a853" d="M 48.410156 71.484375 C 42.683594 74.558594 36.003906 75.71875 29.582031 74.832031 C 23.460938 73.984375 17.625 71.320312 13.019531 67.195312 C 8.238281 62.929688 4.835938 57.164062 3.402344 50.921875 C 2.007812 44.882812 2.472656 38.460938 4.699219 32.679688 C 6.953125 26.832031 10.984375 21.722656 16.164062 18.183594 C 21.699219 14.398438 28.570312 12.660156 35.238281 13.113281 C 41.402344 13.523438 47.386719 15.777344 52.277344 19.546875 C 57.375 23.484375 61.160156 29.003906 63.042969 35.152344 C 64.863281 41.082031 64.835938 47.503906 63.015625 53.421875 C 61.1875 59.378906 57.550781 64.734375 52.671875 68.613281 C 51.292969 69.722656 49.804688 70.71875 48.246094 71.566406 C 47.824219 71.796875 48.21875 71.59375 48.410156 71.484375 C 54 68.449219 58.605469 63.902344 61.527344 58.230469 C 64.464844 52.519531 65.597656 45.933594 64.699219 39.566406 C 63.769531 32.964844 60.679688 26.734375 55.992188 21.996094 C 51.472656 17.402344 45.527344 14.316406 39.1875 13.195312 C 32.820312 12.074219 26.179688 12.988281 20.34375 15.777344 C 14.757812 18.457031 9.945312 22.511719 6.679688 27.800781 C 3.320312 33.238281 1.679688 39.675781 2.050781 46.042969 C 2.433594 52.710938 5.015625 59.1875 9.304688 64.3125 C 13.445312 69.242188 19.101562 72.808594 25.332031 74.4375 C 31.589844 76.074219 38.3125 75.707031 44.351562 73.382812 C 45.691406 72.863281 46.988281 72.25 48.261719 71.566406 C 48.4375 71.484375 48.847656 71.253906 48.410156 71.484375 Z M 48.410156 71.484375 " fill-opacity="1" fill-rule="nonzero"/><g clip-path="url(#8430a23bde)"><path fill="#34a853" d="M 11.164062 65.894531 C 6.941406 61.128906 4.234375 55.167969 3.484375 48.84375 C 2.761719 42.695312 3.878906 36.382812 6.722656 30.875 C 9.742188 25 14.757812 19.945312 20.769531 17.15625 C 26.453125 14.519531 32.902344 13.6875 39.078125 14.726562 C 51.746094 16.871094 62.058594 26.941406 64.480469 39.566406 C 65.625 45.578125 64.984375 51.890625 62.621094 57.535156 C 60.121094 63.53125 55.707031 68.65625 50.171875 72.070312 C 39.199219 78.820312 24.390625 77.332031 14.578125 69.203125 C 13.363281 68.179688 12.230469 67.070312 11.164062 65.894531 C 11.121094 65.855469 10.589844 66.265625 10.546875 66.222656 C 14.949219 71.128906 20.796875 74.574219 27.246094 75.964844 C 33.542969 77.332031 40.226562 76.691406 46.15625 74.148438 C 51.800781 71.714844 56.773438 67.796875 60.242188 62.710938 C 63.890625 57.371094 65.789062 50.90625 65.640625 44.445312 C 65.488281 37.925781 63.277344 31.53125 59.328125 26.339844 C 55.324219 21.066406 49.679688 17.128906 43.3125 15.246094 C 37.164062 13.414062 30.457031 13.535156 24.375 15.613281 C 18.597656 17.59375 13.320312 21.203125 9.496094 25.96875 C 5.453125 31.011719 3.0625 37.296875 2.707031 43.761719 C 2.351562 50.265625 4.058594 56.796875 7.570312 62.273438 C 8.457031 63.667969 9.46875 64.980469 10.5625 66.210938 C 10.601562 66.265625 11.136719 65.855469 11.164062 65.894531 Z M 11.164062 65.894531 " fill-opacity="1" fill-rule="nonzero"/></g><path fill="#4285f4" d="M 67.695312 41.484375 C 67.679688 47.878906 65.546875 54.21875 61.777344 59.371094 C 58.183594 64.289062 53.128906 68.085938 47.402344 70.148438 C 41.460938 72.296875 34.875 72.542969 28.792969 70.875 C 22.902344 69.25 17.5625 65.847656 13.585938 61.199219 C 9.570312 56.5 7.027344 50.625 6.386719 44.476562 C 5.703125 37.902344 7.410156 31.140625 10.921875 25.566406 C 14.160156 20.414062 18.929688 16.289062 24.488281 13.816406 C 30.28125 11.246094 36.839844 10.535156 43.058594 11.792969 C 49.042969 12.996094 54.605469 16.027344 58.878906 20.386719 C 63.183594 24.773438 66.121094 30.417969 67.214844 36.46875 C 67.53125 38.191406 67.695312 39.941406 67.695312 41.6875 C 67.695312 42.152344 67.707031 41.703125 67.695312 41.484375 C 67.679688 35.210938 65.902344 29.089844 62.351562 23.898438 C 58.773438 18.679688 53.59375 14.605469 47.664062 12.40625 C 41.515625 10.125 34.65625 9.878906 28.34375 11.722656 C 22.25 13.5 16.78125 17.191406 12.835938 22.175781 C 8.871094 27.179688 6.5625 33.355469 6.25 39.722656 C 5.949219 45.828125 7.21875 51.894531 10.277344 57.210938 C 13.40625 62.664062 18.21875 67.101562 23.914062 69.78125 C 29.871094 72.582031 36.703125 73.375 43.152344 72.050781 C 49.371094 70.777344 55.109375 67.539062 59.441406 62.894531 C 63.800781 58.234375 66.628906 52.238281 67.449219 45.910156 C 67.625 44.503906 67.707031 43.097656 67.707031 41.675781 C 67.707031 41.457031 67.695312 41.003906 67.695312 41.484375 Z M 67.695312 41.484375 " fill-opacity="1" fill-rule="nonzero"/><g clip-path="url(#687dfc43e0)"><path fill="#4285f4" d="M 45.394531 71.160156 C 39.285156 72.582031 32.835938 72.144531 27.003906 69.835938 C 21.332031 67.582031 16.386719 63.644531 12.945312 58.605469 C 9.269531 53.234375 7.230469 46.527344 7.628906 39.996094 C 8.011719 33.832031 10.304688 27.847656 14.105469 22.984375 C 21.90625 13.007812 35.476562 8.785156 47.554688 12.597656 C 53.304688 14.414062 58.472656 17.925781 62.253906 22.628906 C 66.285156 27.613281 68.664062 33.847656 69.019531 40.242188 C 69.730469 52.921875 61.503906 65.066406 49.847656 69.753906 C 48.402344 70.328125 46.910156 70.792969 45.394531 71.160156 C 45.339844 71.175781 45.4375 71.832031 45.394531 71.84375 C 51.707031 70.328125 57.433594 66.871094 61.667969 61.9375 C 65.808594 57.113281 68.378906 51.019531 68.949219 44.695312 C 69.496094 38.65625 68.417969 32.507812 65.628906 27.109375 C 62.707031 21.4375 57.992188 16.78125 52.308594 13.871094 C 46.597656 10.933594 40.011719 9.867188 33.65625 10.851562 C 27.207031 11.847656 21.15625 14.90625 16.535156 19.539062 C 12.070312 24.035156 9.050781 29.898438 7.996094 36.15625 C 7 42.085938 7.667969 48.34375 10.003906 53.890625 C 12.480469 59.765625 16.808594 64.78125 22.25 68.128906 C 27.714844 71.476562 34.191406 73.074219 40.585938 72.582031 C 42.210938 72.460938 43.808594 72.199219 45.394531 71.832031 C 45.449219 71.832031 45.355469 71.175781 45.394531 71.160156 Z M 45.394531 71.160156 " fill-opacity="1" fill-rule="nonzero"/></g><g clip-path="url(#ac85b0ca2a)"><path fill="#4285f4" d="M 52.226562 68.359375 C 46.5 71.433594 39.820312 72.597656 33.398438 71.707031 C 27.277344 70.859375 21.441406 68.195312 16.835938 64.070312 C 12.054688 59.808594 8.652344 54.039062 7.21875 47.796875 C 5.824219 41.757812 6.289062 35.335938 8.515625 29.554688 C 10.769531 23.707031 14.800781 18.597656 19.980469 15.058594 C 25.515625 11.273438 32.386719 9.539062 39.054688 9.988281 C 45.21875 10.398438 51.203125 12.652344 56.09375 16.425781 C 61.191406 20.359375 64.976562 25.878906 66.859375 32.027344 C 68.675781 37.957031 68.648438 44.378906 66.832031 50.296875 C 65.003906 56.253906 61.367188 61.609375 56.488281 65.492188 C 55.109375 66.597656 53.621094 67.59375 52.0625 68.441406 C 51.640625 68.675781 52.035156 68.46875 52.226562 68.359375 C 57.816406 65.328125 62.417969 60.777344 65.34375 55.105469 C 68.28125 49.394531 69.414062 42.808594 68.515625 36.441406 C 67.585938 29.84375 64.496094 23.613281 59.808594 18.871094 C 55.289062 14.277344 49.34375 11.191406 43.003906 10.070312 C 36.636719 8.949219 29.996094 9.867188 24.160156 12.652344 C 18.574219 15.332031 13.761719 19.390625 10.496094 24.675781 C 7.136719 30.117188 5.496094 36.550781 5.867188 42.917969 C 6.25 49.585938 8.832031 56.0625 13.121094 61.1875 C 17.261719 66.121094 22.917969 69.6875 29.148438 71.3125 C 35.40625 72.953125 42.128906 72.582031 48.167969 70.257812 C 49.507812 69.742188 50.804688 69.125 52.078125 68.441406 C 52.253906 68.359375 52.664062 68.128906 52.226562 68.359375 Z M 52.226562 68.359375 " fill-opacity="1" fill-rule="nonzero"/></g><g clip-path="url(#3c163c2af6)"><path fill="#4285f4" d="M 14.980469 62.773438 C 10.757812 58.003906 8.050781 52.046875 7.300781 45.71875 C 6.574219 39.570312 7.695312 33.257812 10.539062 27.75 C 13.558594 21.875 18.574219 16.820312 24.585938 14.035156 C 30.269531 11.394531 36.71875 10.5625 42.894531 11.601562 C 55.5625 13.746094 65.875 23.816406 68.296875 36.441406 C 69.441406 42.453125 68.800781 48.765625 66.4375 54.410156 C 63.9375 60.40625 59.523438 65.53125 53.988281 68.949219 C 43.015625 75.699219 28.207031 74.207031 18.394531 66.078125 C 17.179688 65.054688 16.046875 63.945312 14.980469 62.773438 C 14.9375 62.730469 14.40625 63.140625 14.363281 63.101562 C 18.765625 68.003906 24.613281 71.449219 31.0625 72.84375 C 37.359375 74.207031 44.042969 73.566406 49.972656 71.023438 C 55.613281 68.59375 60.589844 64.671875 64.058594 59.589844 C 67.707031 54.246094 69.605469 47.78125 69.457031 41.320312 C 69.304688 34.800781 67.09375 28.40625 63.144531 23.214844 C 59.140625 17.941406 53.496094 14.007812 47.128906 12.121094 C 40.980469 10.289062 34.273438 10.414062 28.191406 12.488281 C 22.414062 14.46875 17.136719 18.078125 13.3125 22.847656 C 9.269531 27.886719 6.875 34.171875 6.523438 40.636719 C 6.167969 47.140625 7.875 53.671875 11.386719 59.152344 C 12.273438 60.542969 13.285156 61.855469 14.378906 63.085938 C 14.417969 63.140625 14.953125 62.730469 14.980469 62.773438 Z M 14.980469 62.773438 " fill-opacity="1" fill-rule="nonzero"/></g><path fill="#fbbc05" d="M 65.539062 42.777344 C 65.523438 49.171875 63.394531 55.511719 59.621094 60.664062 C 56.027344 65.582031 50.972656 69.378906 45.246094 71.445312 C 39.304688 73.589844 32.71875 73.835938 26.636719 72.167969 C 20.75 70.542969 15.40625 67.140625 11.429688 62.492188 C 7.414062 57.792969 4.871094 51.917969 4.230469 45.769531 C 3.546875 39.195312 5.253906 32.433594 8.765625 26.859375 C 12.003906 21.707031 16.773438 17.582031 22.332031 15.109375 C 28.128906 12.539062 34.6875 11.828125 40.902344 13.085938 C 46.886719 14.289062 52.449219 17.320312 56.726562 21.679688 C 61.03125 26.066406 63.96875 31.710938 65.058594 37.761719 C 65.375 39.484375 65.539062 41.234375 65.539062 42.980469 C 65.539062 43.445312 65.550781 42.996094 65.539062 42.777344 C 65.523438 36.503906 63.75 30.382812 60.195312 25.191406 C 56.617188 19.972656 51.4375 15.902344 45.507812 13.699219 C 39.359375 11.417969 32.5 11.171875 26.1875 13.015625 C 20.09375 14.792969 14.628906 18.484375 10.679688 23.46875 C 6.714844 28.472656 4.40625 34.648438 4.09375 41.015625 C 3.792969 47.121094 5.0625 53.1875 8.125 58.503906 C 11.253906 63.957031 16.0625 68.394531 21.761719 71.074219 C 27.71875 73.875 34.550781 74.667969 41 73.34375 C 47.214844 72.070312 52.953125 68.832031 57.285156 64.1875 C 61.644531 59.527344 64.472656 53.53125 65.292969 47.203125 C 65.46875 45.796875 65.550781 44.390625 65.550781 42.96875 C 65.550781 42.75 65.539062 42.296875 65.539062 42.777344 Z M 65.539062 42.777344 " fill-opacity="1" fill-rule="nonzero"/><path fill="#fbbc05" d="M 43.238281 72.453125 C 37.132812 73.875 30.683594 73.4375 24.847656 71.128906 C 19.175781 68.875 14.230469 64.941406 10.789062 59.898438 C 7.113281 54.527344 5.078125 47.820312 5.472656 41.289062 C 5.855469 35.125 8.152344 29.140625 11.949219 24.277344 C 19.75 14.300781 33.320312 10.078125 45.398438 13.890625 C 51.152344 15.710938 56.316406 19.222656 60.101562 23.921875 C 64.132812 28.910156 66.507812 35.140625 66.863281 41.535156 C 67.574219 54.214844 59.347656 66.359375 47.695312 71.046875 C 46.246094 71.621094 44.757812 72.085938 43.238281 72.453125 C 43.183594 72.46875 43.28125 73.125 43.238281 73.136719 C 49.550781 71.621094 55.277344 68.164062 59.511719 63.230469 C 63.652344 58.410156 66.222656 52.3125 66.796875 45.988281 C 67.34375 39.949219 66.261719 33.800781 63.476562 28.402344 C 60.550781 22.730469 55.835938 18.074219 50.152344 15.164062 C 44.441406 12.226562 37.855469 11.160156 31.503906 12.144531 C 25.054688 13.140625 19 16.199219 14.382812 20.832031 C 9.914062 25.328125 6.894531 31.191406 5.839844 37.449219 C 4.84375 43.378906 5.515625 49.636719 7.851562 55.183594 C 10.324219 61.058594 14.65625 66.074219 20.09375 69.421875 C 25.558594 72.769531 32.035156 74.367188 38.429688 73.875 C 40.054688 73.753906 41.652344 73.492188 43.238281 73.125 C 43.292969 73.125 43.199219 72.46875 43.238281 72.453125 Z M 43.238281 72.453125 " fill-opacity="1" fill-rule="nonzero"/><g clip-path="url(#0621d48109)"><path fill="#fbbc05" d="M 50.070312 69.652344 C 44.347656 72.726562 37.664062 73.890625 31.242188 73 C 25.121094 72.152344 19.285156 69.488281 14.683594 65.363281 C 9.898438 61.101562 6.496094 55.332031 5.0625 49.089844 C 3.667969 43.050781 4.132812 36.628906 6.359375 30.847656 C 8.617188 25 12.644531 19.890625 17.824219 16.351562 C 23.359375 12.566406 30.230469 10.832031 36.898438 11.28125 C 43.0625 11.691406 49.046875 13.945312 53.9375 17.71875 C 59.035156 21.652344 62.820312 27.171875 64.703125 33.320312 C 66.523438 39.25 66.496094 45.671875 64.675781 51.589844 C 62.847656 57.546875 59.210938 62.902344 54.335938 66.785156 C 52.953125 67.890625 51.464844 68.886719 49.90625 69.734375 C 49.484375 69.96875 49.878906 69.761719 50.070312 69.652344 C 55.660156 66.621094 60.265625 62.070312 63.1875 56.398438 C 66.125 50.6875 67.261719 44.101562 66.359375 37.734375 C 65.429688 31.136719 62.339844 24.90625 57.65625 20.164062 C 53.132812 15.574219 47.1875 12.484375 40.847656 11.363281 C 34.480469 10.242188 27.839844 11.160156 22.007812 13.945312 C 16.417969 16.625 11.609375 20.683594 8.34375 25.96875 C 4.980469 31.410156 3.339844 37.84375 3.710938 44.210938 C 4.09375 50.878906 6.675781 57.355469 10.964844 62.480469 C 15.105469 67.414062 20.761719 70.980469 26.992188 72.605469 C 33.25 74.246094 39.972656 73.875 46.011719 71.554688 C 47.351562 71.035156 48.648438 70.417969 49.921875 69.734375 C 50.097656 69.652344 50.507812 69.421875 50.070312 69.652344 Z M 50.070312 69.652344 " fill-opacity="1" fill-rule="nonzero"/></g><g clip-path="url(#3836b2f5dd)"><path fill="#fbbc05" d="M 12.824219 64.066406 C 8.601562 59.296875 5.894531 53.339844 5.144531 47.011719 C 4.421875 40.863281 5.542969 34.550781 8.382812 29.046875 C 11.402344 23.167969 16.417969 18.113281 22.429688 15.328125 C 28.113281 12.691406 34.5625 11.855469 40.738281 12.894531 C 53.40625 15.039062 63.722656 25.109375 66.140625 37.734375 C 67.289062 43.746094 66.644531 50.058594 64.28125 55.703125 C 61.78125 61.703125 57.367188 66.824219 51.832031 70.242188 C 40.863281 76.992188 26.050781 75.5 16.238281 67.371094 C 15.023438 66.347656 13.890625 65.238281 12.824219 64.066406 C 12.78125 64.023438 12.25 64.433594 12.210938 64.394531 C 16.609375 69.296875 22.457031 72.742188 28.90625 74.136719 C 35.203125 75.5 41.886719 74.859375 47.816406 72.316406 C 53.460938 69.886719 58.433594 65.964844 61.902344 60.882812 C 65.550781 55.539062 67.453125 49.074219 67.300781 42.613281 C 67.152344 36.09375 64.9375 29.699219 60.988281 24.507812 C 56.984375 19.234375 51.34375 15.300781 44.972656 13.414062 C 38.824219 11.582031 32.117188 11.707031 26.035156 13.78125 C 20.257812 15.765625 14.984375 19.371094 11.15625 24.140625 C 7.113281 29.179688 4.722656 35.46875 4.367188 41.929688 C 4.011719 48.433594 5.71875 54.964844 9.230469 60.445312 C 10.117188 61.839844 11.128906 63.148438 12.222656 64.378906 C 12.261719 64.433594 12.796875 64.023438 12.824219 64.066406 Z M 12.824219 64.066406 " fill-opacity="1" fill-rule="nonzero"/></g><path fill="#ea4335" d="M 63.878906 40.621094 C 63.863281 47.015625 61.734375 53.355469 57.960938 58.507812 C 54.367188 63.425781 49.3125 67.226562 43.585938 69.289062 C 37.644531 71.433594 31.058594 71.679688 24.976562 70.011719 C 19.089844 68.386719 13.746094 64.984375 9.769531 60.339844 C 5.753906 55.636719 3.210938 49.761719 2.570312 43.613281 C 1.886719 37.042969 3.59375 30.277344 7.105469 24.703125 C 10.34375 19.550781 15.113281 15.425781 20.671875 12.953125 C 26.464844 10.382812 33.023438 9.671875 39.242188 10.929688 C 45.226562 12.132812 50.789062 15.167969 55.066406 19.523438 C 59.367188 23.910156 62.304688 29.554688 63.398438 35.605469 C 63.714844 37.328125 63.878906 39.078125 63.878906 40.828125 C 63.878906 41.292969 63.890625 40.839844 63.878906 40.621094 C 63.863281 34.351562 62.085938 28.230469 58.535156 23.035156 C 54.957031 17.816406 49.777344 13.746094 43.847656 11.546875 C 37.699219 9.261719 30.839844 9.015625 24.527344 10.863281 C 18.433594 12.636719 12.964844 16.328125 9.019531 21.316406 C 5.054688 26.316406 2.746094 32.492188 2.433594 38.859375 C 2.132812 44.964844 3.402344 51.035156 6.460938 56.347656 C 9.59375 61.800781 14.402344 66.242188 20.097656 68.917969 C 26.054688 71.71875 32.886719 72.511719 39.335938 71.1875 C 45.554688 69.917969 51.292969 66.679688 55.625 62.03125 C 59.984375 57.375 62.8125 51.375 63.632812 45.046875 C 63.808594 43.640625 63.890625 42.234375 63.890625 40.8125 C 63.890625 40.59375 63.878906 40.144531 63.878906 40.621094 Z M 63.878906 40.621094 " fill-opacity="1" fill-rule="nonzero"/><g clip-path="url(#066f26b7c2)"><path fill="#ea4335" d="M 41.578125 70.300781 C 35.472656 71.71875 29.023438 71.28125 23.1875 68.972656 C 17.515625 66.71875 12.570312 62.785156 9.128906 57.742188 C 5.453125 52.371094 3.414062 45.664062 3.8125 39.132812 C 4.195312 32.96875 6.488281 26.984375 10.289062 22.121094 C 18.089844 12.144531 31.660156 7.925781 43.738281 11.738281 C 49.488281 13.554688 54.65625 17.066406 58.441406 21.765625 C 62.46875 26.753906 64.847656 32.984375 65.203125 39.378906 C 65.914062 52.058594 57.6875 64.207031 46.03125 68.890625 C 44.585938 69.464844 43.09375 69.929688 41.578125 70.300781 C 41.523438 70.3125 41.621094 70.96875 41.578125 70.980469 C 47.890625 69.464844 53.617188 66.007812 57.851562 61.074219 C 61.992188 56.253906 64.5625 50.160156 65.136719 43.832031 C 65.679688 37.792969 64.601562 31.644531 61.816406 26.246094 C 58.890625 20.578125 54.175781 15.917969 48.492188 13.007812 C 42.78125 10.070312 36.195312 9.003906 29.839844 9.988281 C 23.390625 10.984375 17.339844 14.046875 12.722656 18.675781 C 8.253906 23.171875 5.234375 29.035156 4.179688 35.292969 C 3.183594 41.222656 3.851562 47.480469 6.191406 53.027344 C 8.664062 58.902344 12.992188 63.917969 18.433594 67.265625 C 23.898438 70.613281 30.375 72.210938 36.769531 71.71875 C 38.394531 71.597656 39.992188 71.335938 41.578125 70.96875 C 41.632812 70.96875 41.539062 70.3125 41.578125 70.300781 Z M 41.578125 70.300781 " fill-opacity="1" fill-rule="nonzero"/></g><path fill="#ea4335" d="M 48.410156 67.5 C 42.683594 70.574219 36.003906 71.734375 29.582031 70.84375 C 23.460938 70 17.625 67.335938 13.019531 63.207031 C 8.238281 58.945312 4.835938 53.179688 3.402344 46.933594 C 2.007812 40.894531 2.472656 34.472656 4.699219 28.691406 C 6.953125 22.84375 10.984375 17.734375 16.164062 14.195312 C 21.699219 10.410156 28.570312 8.675781 35.238281 9.125 C 41.402344 9.535156 47.386719 11.792969 52.277344 15.5625 C 57.375 19.496094 61.160156 25.019531 63.042969 31.167969 C 64.863281 37.097656 64.835938 43.519531 63.015625 49.433594 C 61.1875 55.390625 57.550781 60.75 52.671875 64.628906 C 51.292969 65.734375 49.804688 66.734375 48.246094 67.578125 C 47.824219 67.8125 48.21875 67.605469 48.410156 67.5 C 54 64.464844 58.605469 59.914062 61.527344 54.246094 C 64.464844 48.53125 65.597656 41.945312 64.699219 35.578125 C 63.769531 28.980469 60.679688 22.75 55.992188 18.007812 C 51.472656 13.417969 45.527344 10.328125 39.1875 9.207031 C 32.820312 8.089844 26.179688 9.003906 20.34375 11.792969 C 14.757812 14.46875 9.945312 18.527344 6.679688 23.816406 C 3.320312 29.253906 1.679688 35.6875 2.050781 42.054688 C 2.433594 48.722656 5.015625 55.199219 9.304688 60.324219 C 13.445312 65.257812 19.101562 68.824219 25.332031 70.449219 C 31.589844 72.089844 38.3125 71.71875 44.351562 69.398438 C 45.691406 68.878906 46.988281 68.261719 48.261719 67.578125 C 48.4375 67.5 48.847656 67.265625 48.410156 67.5 Z M 48.410156 67.5 " fill-opacity="1" fill-rule="nonzero"/><g clip-path="url(#2a2b1762d2)"><path fill="#ea4335" d="M 11.164062 61.910156 C 6.941406 57.140625 4.234375 51.183594 3.484375 44.855469 C 2.761719 38.707031 3.878906 32.394531 6.722656 26.890625 C 9.742188 21.015625 14.757812 15.957031 20.769531 13.171875 C 26.453125 10.535156 32.902344 9.699219 39.078125 10.738281 C 51.746094 12.882812 62.058594 22.953125 64.480469 35.578125 C 65.625 41.589844 64.984375 47.90625 62.621094 53.546875 C 60.121094 59.546875 55.707031 64.667969 50.171875 68.085938 C 39.199219 74.835938 24.390625 73.347656 14.578125 65.214844 C 13.363281 64.191406 12.230469 63.085938 11.164062 61.910156 C 11.121094 61.867188 10.589844 62.277344 10.546875 62.238281 C 14.949219 67.144531 20.796875 70.585938 27.246094 71.980469 C 33.542969 73.347656 40.226562 72.703125 46.15625 70.164062 C 51.800781 67.730469 56.773438 63.808594 60.242188 58.726562 C 63.890625 53.382812 65.789062 46.921875 65.640625 40.457031 C 65.488281 33.941406 63.277344 27.546875 59.328125 22.351562 C 55.324219 17.078125 49.679688 13.144531 43.3125 11.257812 C 37.164062 9.425781 30.457031 9.550781 24.375 11.628906 C 18.597656 13.609375 13.320312 17.214844 9.496094 21.984375 C 5.453125 27.027344 3.0625 33.3125 2.707031 39.773438 C 2.351562 46.277344 4.058594 52.808594 7.570312 58.289062 C 8.457031 59.683594 9.46875 60.992188 10.5625 62.222656 C 10.601562 62.277344 11.136719 61.867188 11.164062 61.910156 Z M 11.164062 61.910156 " fill-opacity="1" fill-rule="nonzero"/></g><g clip-path="url(#82706d83d8)"><path fill="#5e5e5e" d="M 35.707031 47.28125 C 38.292969 47.28125 40.378906 45.179688 40.378906 42.59375 L 40.394531 33.214844 C 40.394531 30.621094 38.300781 28.527344 35.707031 28.527344 C 33.117188 28.527344 31.015625 30.621094 31.015625 33.214844 L 31.015625 42.59375 C 31.015625 45.179688 33.117188 47.28125 35.707031 47.28125 Z M 43.988281 42.59375 C 43.988281 47.28125 40.027344 50.5625 35.707031 50.5625 C 31.390625 50.5625 27.421875 47.28125 27.421875 42.59375 L 24.765625 42.59375 C 24.765625 47.929688 29.015625 52.335938 34.140625 53.09375 L 34.140625 58.21875 L 37.269531 58.21875 L 37.269531 53.09375 C 42.394531 52.335938 46.644531 47.929688 46.644531 42.59375 Z M 43.988281 42.59375 " fill-opacity="1" fill-rule="nonzero"/></g><g fill="#5e5e5e" fill-opacity="1"><g transform="translate(75.221586, 44.216745)"><g><path d="M 29.3125 -23.65625 L 29.3125 0 L 23.546875 0 L 23.546875 -13.34375 L 18.0625 0 L 13.78125 0 L 8.28125 -13.34375 L 8.28125 0 L 2.53125 0 L 2.53125 -23.65625 L 9.125 -23.65625 L 15.9375 -7.34375 L 22.703125 -23.65625 Z M 29.3125 -23.65625 "/></g></g></g><g fill="#5e5e5e" fill-opacity="1"><g transform="translate(107.050441, 44.216745)"><g><path d="M 7.78125 -20.90625 C 7.132812 -20.257812 6.335938 -19.9375 5.390625 -19.9375 C 4.441406 -19.9375 3.640625 -20.257812 2.984375 -20.90625 C 2.335938 -21.5625 2.015625 -22.367188 2.015625 -23.328125 C 2.015625 -24.285156 2.335938 -25.085938 2.984375 -25.734375 C 3.640625 -26.390625 4.441406 -26.71875 5.390625 -26.71875 C 6.335938 -26.71875 7.132812 -26.390625 7.78125 -25.734375 C 8.4375 -25.085938 8.765625 -24.285156 8.765625 -23.328125 C 8.765625 -22.367188 8.4375 -21.5625 7.78125 -20.90625 Z M 2.53125 0 L 2.53125 -18.796875 L 8.28125 -18.796875 L 8.28125 0 Z M 2.53125 0 "/></g></g></g><g fill="#5e5e5e" fill-opacity="1"><g transform="translate(117.86215, 44.216745)"><g><path d="M 8.28125 -18.796875 L 8.28125 -16.03125 C 9.476562 -18.007812 11.378906 -19 13.984375 -19 C 16.140625 -19 17.882812 -18.28125 19.21875 -16.84375 C 20.550781 -15.40625 21.21875 -13.453125 21.21875 -10.984375 L 21.21875 0 L 15.5 0 L 15.5 -10.203125 C 15.5 -11.421875 15.175781 -12.359375 14.53125 -13.015625 C 13.894531 -13.679688 13.015625 -14.015625 11.890625 -14.015625 C 10.765625 -14.015625 9.878906 -13.679688 9.234375 -13.015625 C 8.597656 -12.359375 8.28125 -11.421875 8.28125 -10.203125 L 8.28125 0 L 2.53125 0 L 2.53125 -18.796875 Z M 8.28125 -18.796875 "/></g></g></g><g fill="#5e5e5e" fill-opacity="1"><g transform="translate(141.439082, 44.216745)"><g><path d="M 15.296875 -18.796875 L 21.0625 -18.796875 L 21.0625 0 L 15.296875 0 L 15.296875 -2.765625 C 14.109375 -0.785156 12.207031 0.203125 9.59375 0.203125 C 7.4375 0.203125 5.691406 -0.515625 4.359375 -1.953125 C 3.023438 -3.390625 2.359375 -5.34375 2.359375 -7.8125 L 2.359375 -18.796875 L 8.078125 -18.796875 L 8.078125 -8.59375 C 8.078125 -7.375 8.394531 -6.429688 9.03125 -5.765625 C 9.675781 -5.109375 10.5625 -4.78125 11.6875 -4.78125 C 12.8125 -4.78125 13.691406 -5.109375 14.328125 -5.765625 C 14.972656 -6.429688 15.296875 -7.375 15.296875 -8.59375 Z M 15.296875 -18.796875 "/></g></g></g><g fill="#5e5e5e" fill-opacity="1"><g transform="translate(165.016014, 44.216745)"><g><path d="M 10.515625 -4.890625 L 12.5625 -4.890625 L 12.5625 0 L 9.640625 0 C 7.523438 0 5.890625 -0.460938 4.734375 -1.390625 C 3.578125 -2.328125 3 -3.929688 3 -6.203125 L 3 -14.015625 L 1.25 -14.015625 L 1.25 -18.796875 L 3 -18.796875 L 3 -23.375 L 8.765625 -23.375 L 8.765625 -18.796875 L 12.53125 -18.796875 L 12.53125 -14.015625 L 8.765625 -14.015625 L 8.765625 -6.203125 C 8.765625 -5.328125 9.347656 -4.890625 10.515625 -4.890625 Z M 10.515625 -4.890625 "/></g></g></g><g fill="#5e5e5e" fill-opacity="1"><g transform="translate(178.993759, 44.216745)"><g><path d="M 10.515625 0.234375 C 7.773438 0.234375 5.523438 -0.644531 3.765625 -2.40625 C 2.015625 -4.164062 1.140625 -6.503906 1.140625 -9.421875 C 1.140625 -12.347656 2.007812 -14.675781 3.75 -16.40625 C 5.488281 -18.132812 7.738281 -19 10.5 -19 C 13.269531 -19 15.5625 -18.144531 17.375 -16.4375 C 19.195312 -14.726562 20.109375 -12.359375 20.109375 -9.328125 C 20.109375 -8.679688 20.066406 -8.078125 19.984375 -7.515625 L 7.046875 -7.515625 C 7.148438 -6.679688 7.515625 -6 8.140625 -5.46875 C 8.773438 -4.945312 9.457031 -4.6875 10.1875 -4.6875 C 10.914062 -4.6875 11.457031 -4.757812 11.8125 -4.90625 C 12.175781 -5.050781 12.441406 -5.195312 12.609375 -5.34375 C 12.785156 -5.488281 13.003906 -5.726562 13.265625 -6.0625 L 19.5 -6.0625 C 18.96875 -4.175781 17.890625 -2.65625 16.265625 -1.5 C 14.648438 -0.34375 12.734375 0.234375 10.515625 0.234375 Z M 14.109375 -11.109375 C 14.023438 -11.992188 13.644531 -12.707031 12.96875 -13.25 C 12.289062 -13.800781 11.492188 -14.078125 10.578125 -14.078125 C 9.660156 -14.078125 8.882812 -13.800781 8.25 -13.25 C 7.625 -12.707031 7.234375 -11.992188 7.078125 -11.109375 Z M 14.109375 -11.109375 "/></g></g></g><g fill="#5e5e5e" fill-opacity="1"><g transform="translate(200.280356, 44.216745)"><g><path d="M 0.90625 -19.265625 L 0.90625 -23.65625 L 19.578125 -23.65625 L 19.578125 -19.265625 L 13.109375 -19.265625 L 13.109375 0 L 7.34375 0 L 7.34375 -19.265625 Z M 0.90625 -19.265625 "/></g></g></g><g fill="#5e5e5e" fill-opacity="1"><g transform="translate(220.7586, 44.216745)"><g><path d="M 13.984375 -5.953125 C 14.816406 -6.765625 15.234375 -7.910156 15.234375 -9.390625 C 15.234375 -10.878906 14.816406 -12.019531 13.984375 -12.8125 C 13.148438 -13.613281 12.191406 -14.015625 11.109375 -14.015625 C 10.035156 -14.015625 9.082031 -13.609375 8.25 -12.796875 C 7.414062 -11.992188 7 -10.847656 7 -9.359375 C 7 -7.878906 7.414062 -6.738281 8.25 -5.9375 C 9.082031 -5.144531 10.035156 -4.75 11.109375 -4.75 C 12.191406 -4.75 13.148438 -5.148438 13.984375 -5.953125 Z M 3.625 -2.453125 C 1.96875 -4.253906 1.140625 -6.554688 1.140625 -9.359375 C 1.140625 -12.171875 1.96875 -14.476562 3.625 -16.28125 C 5.289062 -18.09375 7.320312 -19 9.71875 -19 C 12.113281 -19 13.953125 -18.113281 15.234375 -16.34375 L 15.234375 -18.796875 L 20.984375 -18.796875 L 20.984375 0 L 15.234375 0 L 15.234375 -2.734375 C 13.835938 -0.753906 11.96875 0.234375 9.625 0.234375 C 7.289062 0.234375 5.289062 -0.660156 3.625 -2.453125 Z M 3.625 -2.453125 "/></g></g></g><g fill="#5e5e5e" fill-opacity="1"><g transform="translate(244.268161, 44.216745)"><g><path d="M 8.28125 0 L 2.53125 0 L 2.53125 -24.921875 L 8.28125 -24.921875 L 8.28125 -10.953125 L 14.109375 -18.796875 L 21.859375 -18.796875 L 13.8125 -9.203125 L 21.859375 0 L 14.21875 0 L 8.28125 -7.515625 Z M 8.28125 0 "/></g></g></g><g fill="#5e5e5e" fill-opacity="1"><g transform="translate(266.262064, 44.216745)"><g><path d="M 10.515625 0.234375 C 7.773438 0.234375 5.523438 -0.644531 3.765625 -2.40625 C 2.015625 -4.164062 1.140625 -6.503906 1.140625 -9.421875 C 1.140625 -12.347656 2.007812 -14.675781 3.75 -16.40625 C 5.488281 -18.132812 7.738281 -19 10.5 -19 C 13.269531 -19 15.5625 -18.144531 17.375 -16.4375 C 19.195312 -14.726562 20.109375 -12.359375 20.109375 -9.328125 C 20.109375 -8.679688 20.066406 -8.078125 19.984375 -7.515625 L 7.046875 -7.515625 C 7.148438 -6.679688 7.515625 -6 8.140625 -5.46875 C 8.773438 -4.945312 9.457031 -4.6875 10.1875 -4.6875 C 10.914062 -4.6875 11.457031 -4.757812 11.8125 -4.90625 C 12.175781 -5.050781 12.441406 -5.195312 12.609375 -5.34375 C 12.785156 -5.488281 13.003906 -5.726562 13.265625 -6.0625 L 19.5 -6.0625 C 18.96875 -4.175781 17.890625 -2.65625 16.265625 -1.5 C 14.648438 -0.34375 12.734375 0.234375 10.515625 0.234375 Z M 14.109375 -11.109375 C 14.023438 -11.992188 13.644531 -12.707031 12.96875 -13.25 C 12.289062 -13.800781 11.492188 -14.078125 10.578125 -14.078125 C 9.660156 -14.078125 8.882812 -13.800781 8.25 -13.25 C 7.625 -12.707031 7.234375 -11.992188 7.078125 -11.109375 Z M 14.109375 -11.109375 "/></g></g></g><g fill="#5e5e5e" fill-opacity="1"><g transform="translate(287.548649, 44.216745)"><g><path d="M 8.28125 -18.796875 L 8.28125 -15.296875 C 9.632812 -17.765625 11.429688 -19 13.671875 -19 L 13.671875 -13.140625 L 12.265625 -13.140625 C 10.941406 -13.140625 9.945312 -12.820312 9.28125 -12.1875 C 8.613281 -11.5625 8.28125 -10.460938 8.28125 -8.890625 L 8.28125 0 L 2.53125 0 L 2.53125 -18.796875 Z M 8.28125 -18.796875 "/></g></g></g><g fill="#5e5e5e" fill-opacity="1"><g transform="translate(301.829518, 44.216745)"><g/></g></g><g fill="#5e5e5e" fill-opacity="1"><g transform="translate(311.933921, 44.216745)"><g><path d="M 17.546875 0 L 16.234375 -3.96875 L 7.75 -3.96875 L 6.4375 0 L 0.296875 0 L 8.515625 -23.71875 L 15.53125 -23.71875 L 23.71875 0 Z M 9.203125 -8.359375 L 14.78125 -8.359375 L 12 -16.78125 Z M 9.203125 -8.359375 "/></g></g></g><g fill="#5e5e5e" fill-opacity="1"><g transform="translate(335.948709, 44.216745)"><g><path d="M 2.53125 0 L 2.53125 -23.65625 L 8.28125 -23.65625 L 8.28125 0 Z M 2.53125 0 "/></g></g></g><g fill="#5e5e5e" fill-opacity="1"><g transform="translate(75.233197, 68.985265)"><g><path d="M 1.703125 0 L 1.703125 -11.3125 L 5.8125 -11.3125 C 6.570312 -11.3125 7.207031 -11.1875 7.71875 -10.9375 C 8.238281 -10.6875 8.628906 -10.332031 8.890625 -9.875 C 9.148438 -9.414062 9.28125 -8.875 9.28125 -8.25 C 9.28125 -7.550781 9.101562 -6.972656 8.75 -6.515625 C 8.394531 -6.054688 7.847656 -5.71875 7.109375 -5.5 L 7.109375 -5.328125 C 7.472656 -5.179688 7.769531 -4.953125 8 -4.640625 C 8.238281 -4.335938 8.457031 -3.878906 8.65625 -3.265625 L 9.6875 0 L 8.328125 0 L 7.1875 -3.453125 C 7.0625 -3.859375 6.910156 -4.175781 6.734375 -4.40625 C 6.554688 -4.644531 6.332031 -4.816406 6.0625 -4.921875 C 5.789062 -5.023438 5.453125 -5.078125 5.046875 -5.078125 L 3.046875 -5.078125 L 3.046875 0 Z M 5.78125 -6.203125 C 6.488281 -6.203125 7.015625 -6.363281 7.359375 -6.6875 C 7.710938 -7.019531 7.890625 -7.519531 7.890625 -8.1875 C 7.890625 -8.863281 7.710938 -9.363281 7.359375 -9.6875 C 7.015625 -10.019531 6.488281 -10.1875 5.78125 -10.1875 L 3.046875 -10.1875 L 3.046875 -6.203125 Z M 5.78125 -6.203125 "/></g></g></g><g fill="#5e5e5e" fill-opacity="1"><g transform="translate(85.710817, 68.985265)"><g><path d="M 8.125 -3.96875 L 2.265625 -3.96875 C 2.304688 -2.9375 2.554688 -2.175781 3.015625 -1.6875 C 3.472656 -1.207031 4.101562 -0.96875 4.90625 -0.96875 C 5.519531 -0.96875 6.007812 -1.070312 6.375 -1.28125 C 6.75 -1.5 7.039062 -1.84375 7.25 -2.3125 L 7.421875 -2.3125 L 8.234375 -1.828125 C 7.992188 -1.203125 7.597656 -0.710938 7.046875 -0.359375 C 6.503906 -0.015625 5.789062 0.15625 4.90625 0.15625 C 4.082031 0.15625 3.375 -0.00390625 2.78125 -0.328125 C 2.1875 -0.648438 1.726562 -1.140625 1.40625 -1.796875 C 1.09375 -2.460938 0.9375 -3.285156 0.9375 -4.265625 C 0.9375 -5.234375 1.101562 -6.050781 1.4375 -6.71875 C 1.78125 -7.382812 2.242188 -7.878906 2.828125 -8.203125 C 3.410156 -8.535156 4.078125 -8.703125 4.828125 -8.703125 C 5.921875 -8.703125 6.773438 -8.390625 7.390625 -7.765625 C 8.003906 -7.148438 8.316406 -6.238281 8.328125 -5.03125 C 8.328125 -4.550781 8.316406 -4.226562 8.296875 -4.0625 Z M 7.078125 -5.03125 C 7.054688 -5.9375 6.851562 -6.59375 6.46875 -7 C 6.09375 -7.414062 5.546875 -7.625 4.828125 -7.625 C 4.085938 -7.625 3.503906 -7.414062 3.078125 -7 C 2.648438 -6.582031 2.390625 -5.925781 2.296875 -5.03125 Z M 7.078125 -5.03125 "/></g></g></g><g fill="#5e5e5e" fill-opacity="1"><g transform="translate(94.811024, 68.985265)"><g><path d="M 4.890625 0.15625 C 4.140625 0.15625 3.460938 -0.0078125 2.859375 -0.34375 C 2.265625 -0.6875 1.796875 -1.191406 1.453125 -1.859375 C 1.109375 -2.535156 0.9375 -3.335938 0.9375 -4.265625 C 0.9375 -5.191406 1.109375 -5.988281 1.453125 -6.65625 C 1.796875 -7.332031 2.265625 -7.84375 2.859375 -8.1875 C 3.460938 -8.53125 4.140625 -8.703125 4.890625 -8.703125 C 5.796875 -8.703125 6.515625 -8.53125 7.046875 -8.1875 C 7.585938 -7.84375 7.972656 -7.390625 8.203125 -6.828125 L 7.34375 -6.203125 L 7.1875 -6.203125 C 6.957031 -6.671875 6.660156 -7.015625 6.296875 -7.234375 C 5.929688 -7.453125 5.460938 -7.5625 4.890625 -7.5625 C 4.367188 -7.5625 3.910156 -7.4375 3.515625 -7.1875 C 3.117188 -6.945312 2.8125 -6.578125 2.59375 -6.078125 C 2.375 -5.585938 2.265625 -4.984375 2.265625 -4.265625 C 2.265625 -3.546875 2.375 -2.941406 2.59375 -2.453125 C 2.8125 -1.960938 3.117188 -1.59375 3.515625 -1.34375 C 3.910156 -1.09375 4.367188 -0.96875 4.890625 -0.96875 C 5.484375 -0.96875 5.972656 -1.097656 6.359375 -1.359375 C 6.753906 -1.628906 7.0625 -2.054688 7.28125 -2.640625 L 7.453125 -2.640625 L 8.28125 -2.15625 C 8.050781 -1.4375 7.648438 -0.867188 7.078125 -0.453125 C 6.515625 -0.046875 5.785156 0.15625 4.890625 0.15625 Z M 4.890625 0.15625 "/></g></g></g><g fill="#5e5e5e" fill-opacity="1"><g transform="translate(103.609445, 68.985265)"><g><path d="M 4.890625 0.15625 C 4.085938 0.15625 3.390625 -0.0078125 2.796875 -0.34375 C 2.203125 -0.6875 1.742188 -1.1875 1.421875 -1.84375 C 1.097656 -2.507812 0.9375 -3.316406 0.9375 -4.265625 C 0.9375 -5.203125 1.097656 -6.003906 1.421875 -6.671875 C 1.742188 -7.335938 2.203125 -7.84375 2.796875 -8.1875 C 3.390625 -8.53125 4.085938 -8.703125 4.890625 -8.703125 C 5.703125 -8.703125 6.40625 -8.53125 7 -8.1875 C 7.59375 -7.84375 8.050781 -7.335938 8.375 -6.671875 C 8.695312 -6.003906 8.859375 -5.203125 8.859375 -4.265625 C 8.859375 -3.316406 8.695312 -2.507812 8.375 -1.84375 C 8.050781 -1.1875 7.59375 -0.6875 7 -0.34375 C 6.40625 -0.0078125 5.703125 0.15625 4.890625 0.15625 Z M 4.890625 -0.96875 C 5.742188 -0.96875 6.394531 -1.234375 6.84375 -1.765625 C 7.300781 -2.304688 7.53125 -3.140625 7.53125 -4.265625 C 7.53125 -5.390625 7.300781 -6.21875 6.84375 -6.75 C 6.394531 -7.289062 5.742188 -7.5625 4.890625 -7.5625 C 4.046875 -7.5625 3.394531 -7.289062 2.9375 -6.75 C 2.488281 -6.21875 2.265625 -5.390625 2.265625 -4.265625 C 2.265625 -3.140625 2.488281 -2.304688 2.9375 -1.765625 C 3.394531 -1.234375 4.046875 -0.96875 4.890625 -0.96875 Z M 4.890625 -0.96875 "/></g></g></g><g fill="#5e5e5e" fill-opacity="1"><g transform="translate(113.406096, 68.985265)"><g><path d="M 1.484375 0 L 1.484375 -8.53125 L 2.6875 -8.53125 L 2.6875 -7.1875 L 2.84375 -7.15625 C 3.238281 -8.125 3.988281 -8.609375 5.09375 -8.609375 C 5.675781 -8.609375 6.109375 -8.503906 6.390625 -8.296875 L 6.078125 -7.21875 L 5.921875 -7.1875 C 5.597656 -7.351562 5.242188 -7.4375 4.859375 -7.4375 C 4.179688 -7.4375 3.660156 -7.179688 3.296875 -6.671875 C 2.929688 -6.160156 2.75 -5.332031 2.75 -4.1875 L 2.75 0 Z M 1.484375 0 "/></g></g></g><g fill="#5e5e5e" fill-opacity="1"><g transform="translate(119.999104, 68.985265)"><g><path d="M 4.421875 0.15625 C 3.734375 0.15625 3.128906 -0.00390625 2.609375 -0.328125 C 2.085938 -0.648438 1.675781 -1.140625 1.375 -1.796875 C 1.082031 -2.460938 0.9375 -3.285156 0.9375 -4.265625 C 0.9375 -5.234375 1.085938 -6.050781 1.390625 -6.71875 C 1.703125 -7.382812 2.128906 -7.878906 2.671875 -8.203125 C 3.222656 -8.535156 3.859375 -8.703125 4.578125 -8.703125 C 5.140625 -8.703125 5.644531 -8.59375 6.09375 -8.375 C 6.550781 -8.15625 6.941406 -7.800781 7.265625 -7.3125 L 7.4375 -7.34375 L 7.4375 -11.953125 L 8.703125 -11.953125 L 8.703125 0 L 7.4375 0 L 7.4375 -1.25 L 7.265625 -1.28125 C 6.992188 -0.851562 6.617188 -0.503906 6.140625 -0.234375 C 5.660156 0.0234375 5.085938 0.15625 4.421875 0.15625 Z M 4.8125 -0.96875 C 5.613281 -0.96875 6.25 -1.238281 6.71875 -1.78125 C 7.195312 -2.320312 7.4375 -3.148438 7.4375 -4.265625 C 7.4375 -5.378906 7.195312 -6.207031 6.71875 -6.75 C 6.25 -7.289062 5.613281 -7.5625 4.8125 -7.5625 C 4 -7.5625 3.367188 -7.296875 2.921875 -6.765625 C 2.484375 -6.234375 2.265625 -5.398438 2.265625 -4.265625 C 2.265625 -2.066406 3.113281 -0.96875 4.8125 -0.96875 Z M 4.8125 -0.96875 "/></g></g></g><g fill="#5e5e5e" fill-opacity="1"><g transform="translate(130.190413, 68.985265)"><g><path d="M 0.484375 2.359375 C 0.929688 2.066406 1.3125 1.726562 1.625 1.34375 C 1.9375 0.957031 2.097656 0.53125 2.109375 0.0625 C 1.796875 0.0625 1.550781 -0.0195312 1.375 -0.1875 C 1.207031 -0.351562 1.125 -0.570312 1.125 -0.84375 C 1.125 -1.113281 1.207031 -1.332031 1.375 -1.5 C 1.539062 -1.675781 1.765625 -1.765625 2.046875 -1.765625 C 2.347656 -1.765625 2.59375 -1.65625 2.78125 -1.4375 C 2.976562 -1.226562 3.078125 -0.898438 3.078125 -0.453125 C 3.078125 0.359375 2.898438 1.035156 2.546875 1.578125 C 2.203125 2.128906 1.691406 2.632812 1.015625 3.09375 Z M 0.484375 2.359375 "/></g></g></g><g fill="#5e5e5e" fill-opacity="1"><g transform="translate(134.3923, 68.985265)"><g/></g></g><g fill="#5e5e5e" fill-opacity="1"><g transform="translate(138.276913, 68.985265)"><g><path d="M 4.9375 0.15625 C 4.226562 0.15625 3.59375 0.0625 3.03125 -0.125 C 2.46875 -0.320312 1.992188 -0.578125 1.609375 -0.890625 C 1.234375 -1.203125 0.957031 -1.546875 0.78125 -1.921875 L 1.5 -2.8125 L 1.6875 -2.8125 C 2.394531 -1.625 3.476562 -1.03125 4.9375 -1.03125 C 5.789062 -1.03125 6.425781 -1.207031 6.84375 -1.5625 C 7.257812 -1.925781 7.46875 -2.425781 7.46875 -3.0625 C 7.46875 -3.425781 7.398438 -3.738281 7.265625 -4 C 7.128906 -4.257812 6.898438 -4.476562 6.578125 -4.65625 C 6.265625 -4.84375 5.835938 -5.003906 5.296875 -5.140625 L 3.96875 -5.46875 C 2.988281 -5.695312 2.265625 -6.070312 1.796875 -6.59375 C 1.328125 -7.113281 1.09375 -7.769531 1.09375 -8.5625 C 1.09375 -9.125 1.238281 -9.625 1.53125 -10.0625 C 1.820312 -10.507812 2.242188 -10.851562 2.796875 -11.09375 C 3.359375 -11.34375 4.023438 -11.46875 4.796875 -11.46875 C 5.648438 -11.46875 6.367188 -11.347656 6.953125 -11.109375 C 7.535156 -10.867188 8.003906 -10.507812 8.359375 -10.03125 L 7.703125 -9.15625 L 7.515625 -9.15625 C 7.191406 -9.550781 6.804688 -9.84375 6.359375 -10.03125 C 5.910156 -10.21875 5.390625 -10.3125 4.796875 -10.3125 C 4.015625 -10.3125 3.421875 -10.160156 3.015625 -9.859375 C 2.617188 -9.554688 2.421875 -9.132812 2.421875 -8.59375 C 2.421875 -8.082031 2.566406 -7.675781 2.859375 -7.375 C 3.148438 -7.070312 3.644531 -6.835938 4.34375 -6.671875 L 5.703125 -6.34375 C 6.796875 -6.09375 7.585938 -5.695312 8.078125 -5.15625 C 8.578125 -4.625 8.828125 -3.945312 8.828125 -3.125 C 8.828125 -2.476562 8.679688 -1.910156 8.390625 -1.421875 C 8.109375 -0.929688 7.675781 -0.546875 7.09375 -0.265625 C 6.507812 0.015625 5.789062 0.15625 4.9375 0.15625 Z M 4.9375 0.15625 "/></g></g></g><g fill="#5e5e5e" fill-opacity="1"><g transform="translate(147.972973, 68.985265)"><g><path d="M 4.21875 0.15625 C 3.25 0.15625 2.53125 -0.0976562 2.0625 -0.609375 C 1.59375 -1.117188 1.359375 -1.863281 1.359375 -2.84375 L 1.359375 -8.53125 L 2.609375 -8.53125 L 2.609375 -2.875 C 2.609375 -1.582031 3.21875 -0.9375 4.4375 -0.9375 C 5.207031 -0.9375 5.816406 -1.1875 6.265625 -1.6875 C 6.722656 -2.195312 6.953125 -3.019531 6.953125 -4.15625 L 6.953125 -8.53125 L 8.203125 -8.53125 L 8.203125 0 L 7.015625 0 L 7.015625 -1.34375 L 6.859375 -1.375 C 6.554688 -0.851562 6.203125 -0.46875 5.796875 -0.21875 C 5.390625 0.03125 4.863281 0.15625 4.21875 0.15625 Z M 4.21875 0.15625 "/></g></g></g><g fill="#5e5e5e" fill-opacity="1"><g transform="translate(157.669033, 68.985265)"><g><path d="M 1.484375 0 L 1.484375 -8.53125 L 2.6875 -8.53125 L 2.6875 -7.265625 L 2.84375 -7.234375 C 3.132812 -7.710938 3.484375 -8.078125 3.890625 -8.328125 C 4.304688 -8.578125 4.800781 -8.703125 5.375 -8.703125 C 6.03125 -8.703125 6.535156 -8.570312 6.890625 -8.3125 C 7.253906 -8.0625 7.539062 -7.660156 7.75 -7.109375 L 7.90625 -7.109375 C 8.195312 -7.628906 8.554688 -8.023438 8.984375 -8.296875 C 9.421875 -8.566406 9.953125 -8.703125 10.578125 -8.703125 C 11.453125 -8.703125 12.101562 -8.460938 12.53125 -7.984375 C 12.96875 -7.503906 13.1875 -6.78125 13.1875 -5.8125 L 13.1875 0 L 11.921875 0 L 11.921875 -5.78125 C 11.921875 -6.40625 11.789062 -6.863281 11.53125 -7.15625 C 11.269531 -7.445312 10.851562 -7.59375 10.28125 -7.59375 C 9.601562 -7.59375 9.046875 -7.34375 8.609375 -6.84375 C 8.179688 -6.351562 7.96875 -5.539062 7.96875 -4.40625 L 7.96875 0 L 6.703125 0 L 6.703125 -5.78125 C 6.703125 -6.40625 6.570312 -6.863281 6.3125 -7.15625 C 6.050781 -7.445312 5.632812 -7.59375 5.0625 -7.59375 C 4.375 -7.59375 3.816406 -7.351562 3.390625 -6.875 C 2.960938 -6.394531 2.75 -5.617188 2.75 -4.546875 L 2.75 0 Z M 1.484375 0 "/></g></g></g><g fill="#5e5e5e" fill-opacity="1"><g transform="translate(172.216983, 68.985265)"><g><path d="M 1.484375 0 L 1.484375 -8.53125 L 2.6875 -8.53125 L 2.6875 -7.265625 L 2.84375 -7.234375 C 3.132812 -7.710938 3.484375 -8.078125 3.890625 -8.328125 C 4.304688 -8.578125 4.800781 -8.703125 5.375 -8.703125 C 6.03125 -8.703125 6.535156 -8.570312 6.890625 -8.3125 C 7.253906 -8.0625 7.539062 -7.660156 7.75 -7.109375 L 7.90625 -7.109375 C 8.195312 -7.628906 8.554688 -8.023438 8.984375 -8.296875 C 9.421875 -8.566406 9.953125 -8.703125 10.578125 -8.703125 C 11.453125 -8.703125 12.101562 -8.460938 12.53125 -7.984375 C 12.96875 -7.503906 13.1875 -6.78125 13.1875 -5.8125 L 13.1875 0 L 11.921875 0 L 11.921875 -5.78125 C 11.921875 -6.40625 11.789062 -6.863281 11.53125 -7.15625 C 11.269531 -7.445312 10.851562 -7.59375 10.28125 -7.59375 C 9.601562 -7.59375 9.046875 -7.34375 8.609375 -6.84375 C 8.179688 -6.351562 7.96875 -5.539062 7.96875 -4.40625 L 7.96875 0 L 6.703125 0 L 6.703125 -5.78125 C 6.703125 -6.40625 6.570312 -6.863281 6.3125 -7.15625 C 6.050781 -7.445312 5.632812 -7.59375 5.0625 -7.59375 C 4.375 -7.59375 3.816406 -7.351562 3.390625 -6.875 C 2.960938 -6.394531 2.75 -5.617188 2.75 -4.546875 L 2.75 0 Z M 1.484375 0 "/></g></g></g><g fill="#5e5e5e" fill-opacity="1"><g transform="translate(186.764934, 68.985265)"><g><path d="M 3.515625 0.15625 C 2.679688 0.15625 2.023438 -0.0625 1.546875 -0.5 C 1.078125 -0.9375 0.84375 -1.5625 0.84375 -2.375 C 0.84375 -2.882812 0.945312 -3.3125 1.15625 -3.65625 C 1.363281 -4 1.6875 -4.28125 2.125 -4.5 C 2.5625 -4.71875 3.132812 -4.890625 3.84375 -5.015625 C 4.457031 -5.117188 4.925781 -5.234375 5.25 -5.359375 C 5.570312 -5.484375 5.789062 -5.625 5.90625 -5.78125 C 6.019531 -5.945312 6.078125 -6.148438 6.078125 -6.390625 C 6.078125 -6.785156 5.941406 -7.082031 5.671875 -7.28125 C 5.410156 -7.488281 4.984375 -7.59375 4.390625 -7.59375 C 3.835938 -7.59375 3.363281 -7.484375 2.96875 -7.265625 C 2.570312 -7.054688 2.210938 -6.742188 1.890625 -6.328125 L 1.734375 -6.328125 L 1.109375 -7.1875 C 1.472656 -7.65625 1.929688 -8.023438 2.484375 -8.296875 C 3.046875 -8.566406 3.679688 -8.703125 4.390625 -8.703125 C 5.398438 -8.703125 6.140625 -8.476562 6.609375 -8.03125 C 7.085938 -7.59375 7.328125 -6.984375 7.328125 -6.203125 L 7.328125 -1.671875 C 7.328125 -1.203125 7.53125 -0.96875 7.9375 -0.96875 C 8.070312 -0.96875 8.203125 -0.988281 8.328125 -1.03125 L 8.4375 -1 L 8.578125 -0.125 C 8.484375 -0.0625 8.359375 -0.015625 8.203125 0.015625 C 8.054688 0.046875 7.90625 0.0625 7.75 0.0625 C 7.28125 0.0625 6.925781 -0.0390625 6.6875 -0.25 C 6.445312 -0.457031 6.289062 -0.757812 6.21875 -1.15625 L 6.0625 -1.171875 C 5.8125 -0.722656 5.476562 -0.390625 5.0625 -0.171875 C 4.65625 0.046875 4.140625 0.15625 3.515625 0.15625 Z M 3.796875 -0.84375 C 4.273438 -0.84375 4.6875 -0.953125 5.03125 -1.171875 C 5.375 -1.390625 5.640625 -1.695312 5.828125 -2.09375 C 6.015625 -2.488281 6.109375 -2.945312 6.109375 -3.46875 L 6.109375 -4.5625 L 5.96875 -4.59375 C 5.769531 -4.457031 5.535156 -4.34375 5.265625 -4.25 C 4.992188 -4.15625 4.613281 -4.070312 4.125 -4 C 3.625 -3.9375 3.226562 -3.832031 2.9375 -3.6875 C 2.644531 -3.550781 2.4375 -3.375 2.3125 -3.15625 C 2.195312 -2.945312 2.140625 -2.6875 2.140625 -2.375 C 2.140625 -1.875 2.285156 -1.492188 2.578125 -1.234375 C 2.867188 -0.972656 3.273438 -0.84375 3.796875 -0.84375 Z M 3.796875 -0.84375 "/></g></g></g><g fill="#5e5e5e" fill-opacity="1"><g transform="translate(195.594307, 68.985265)"><g><path d="M 1.484375 0 L 1.484375 -8.53125 L 2.6875 -8.53125 L 2.6875 -7.1875 L 2.84375 -7.15625 C 3.238281 -8.125 3.988281 -8.609375 5.09375 -8.609375 C 5.675781 -8.609375 6.109375 -8.503906 6.390625 -8.296875 L 6.078125 -7.21875 L 5.921875 -7.1875 C 5.597656 -7.351562 5.242188 -7.4375 4.859375 -7.4375 C 4.179688 -7.4375 3.660156 -7.179688 3.296875 -6.671875 C 2.929688 -6.160156 2.75 -5.332031 2.75 -4.1875 L 2.75 0 Z M 1.484375 0 "/></g></g></g><g fill="#5e5e5e" fill-opacity="1"><g transform="translate(202.187315, 68.985265)"><g><path d="M 2.125 -10.1875 C 1.851562 -10.1875 1.632812 -10.269531 1.46875 -10.4375 C 1.300781 -10.601562 1.21875 -10.816406 1.21875 -11.078125 C 1.21875 -11.328125 1.300781 -11.535156 1.46875 -11.703125 C 1.632812 -11.867188 1.851562 -11.953125 2.125 -11.953125 C 2.382812 -11.953125 2.597656 -11.867188 2.765625 -11.703125 C 2.941406 -11.535156 3.03125 -11.328125 3.03125 -11.078125 C 3.03125 -10.816406 2.941406 -10.601562 2.765625 -10.4375 C 2.597656 -10.269531 2.382812 -10.1875 2.125 -10.1875 Z M 1.484375 0 L 1.484375 -8.53125 L 2.75 -8.53125 L 2.75 0 Z M 1.484375 0 "/></g></g></g><g fill="#5e5e5e" fill-opacity="1"><g transform="translate(206.420155, 68.985265)"><g><path d="M 6.828125 0 L 0.578125 0 L 0.578125 -1.09375 L 5.265625 -7.34375 L 5.21875 -7.5 L 0.78125 -7.5 L 0.78125 -8.546875 L 6.75 -8.546875 L 6.75 -7.4375 L 2.0625 -1.203125 L 2.125 -1.03125 L 6.828125 -1.03125 Z M 6.828125 0 "/></g></g></g><g fill="#5e5e5e" fill-opacity="1"><g transform="translate(213.85664, 68.985265)"><g><path d="M 8.125 -3.96875 L 2.265625 -3.96875 C 2.304688 -2.9375 2.554688 -2.175781 3.015625 -1.6875 C 3.472656 -1.207031 4.101562 -0.96875 4.90625 -0.96875 C 5.519531 -0.96875 6.007812 -1.070312 6.375 -1.28125 C 6.75 -1.5 7.039062 -1.84375 7.25 -2.3125 L 7.421875 -2.3125 L 8.234375 -1.828125 C 7.992188 -1.203125 7.597656 -0.710938 7.046875 -0.359375 C 6.503906 -0.015625 5.789062 0.15625 4.90625 0.15625 C 4.082031 0.15625 3.375 -0.00390625 2.78125 -0.328125 C 2.1875 -0.648438 1.726562 -1.140625 1.40625 -1.796875 C 1.09375 -2.460938 0.9375 -3.285156 0.9375 -4.265625 C 0.9375 -5.234375 1.101562 -6.050781 1.4375 -6.71875 C 1.78125 -7.382812 2.242188 -7.878906 2.828125 -8.203125 C 3.410156 -8.535156 4.078125 -8.703125 4.828125 -8.703125 C 5.921875 -8.703125 6.773438 -8.390625 7.390625 -7.765625 C 8.003906 -7.148438 8.316406 -6.238281 8.328125 -5.03125 C 8.328125 -4.550781 8.316406 -4.226562 8.296875 -4.0625 Z M 7.078125 -5.03125 C 7.054688 -5.9375 6.851562 -6.59375 6.46875 -7 C 6.09375 -7.414062 5.546875 -7.625 4.828125 -7.625 C 4.085938 -7.625 3.503906 -7.414062 3.078125 -7 C 2.648438 -6.582031 2.390625 -5.925781 2.296875 -5.03125 Z M 7.078125 -5.03125 "/></g></g></g><g fill="#5e5e5e" fill-opacity="1"><g transform="translate(222.956847, 68.985265)"><g><path d="M 0.484375 2.359375 C 0.929688 2.066406 1.3125 1.726562 1.625 1.34375 C 1.9375 0.957031 2.097656 0.53125 2.109375 0.0625 C 1.796875 0.0625 1.550781 -0.0195312 1.375 -0.1875 C 1.207031 -0.351562 1.125 -0.570312 1.125 -0.84375 C 1.125 -1.113281 1.207031 -1.332031 1.375 -1.5 C 1.539062 -1.675781 1.765625 -1.765625 2.046875 -1.765625 C 2.347656 -1.765625 2.59375 -1.65625 2.78125 -1.4375 C 2.976562 -1.226562 3.078125 -0.898438 3.078125 -0.453125 C 3.078125 0.359375 2.898438 1.035156 2.546875 1.578125 C 2.203125 2.128906 1.691406 2.632812 1.015625 3.09375 Z M 0.484375 2.359375 "/></g></g></g><g fill="#5e5e5e" fill-opacity="1"><g transform="translate(227.158735, 68.985265)"><g/></g></g><g fill="#5e5e5e" fill-opacity="1"><g transform="translate(231.043347, 68.985265)"><g><path d="M 3.515625 0.15625 C 2.679688 0.15625 2.023438 -0.0625 1.546875 -0.5 C 1.078125 -0.9375 0.84375 -1.5625 0.84375 -2.375 C 0.84375 -2.882812 0.945312 -3.3125 1.15625 -3.65625 C 1.363281 -4 1.6875 -4.28125 2.125 -4.5 C 2.5625 -4.71875 3.132812 -4.890625 3.84375 -5.015625 C 4.457031 -5.117188 4.925781 -5.234375 5.25 -5.359375 C 5.570312 -5.484375 5.789062 -5.625 5.90625 -5.78125 C 6.019531 -5.945312 6.078125 -6.148438 6.078125 -6.390625 C 6.078125 -6.785156 5.941406 -7.082031 5.671875 -7.28125 C 5.410156 -7.488281 4.984375 -7.59375 4.390625 -7.59375 C 3.835938 -7.59375 3.363281 -7.484375 2.96875 -7.265625 C 2.570312 -7.054688 2.210938 -6.742188 1.890625 -6.328125 L 1.734375 -6.328125 L 1.109375 -7.1875 C 1.472656 -7.65625 1.929688 -8.023438 2.484375 -8.296875 C 3.046875 -8.566406 3.679688 -8.703125 4.390625 -8.703125 C 5.398438 -8.703125 6.140625 -8.476562 6.609375 -8.03125 C 7.085938 -7.59375 7.328125 -6.984375 7.328125 -6.203125 L 7.328125 -1.671875 C 7.328125 -1.203125 7.53125 -0.96875 7.9375 -0.96875 C 8.070312 -0.96875 8.203125 -0.988281 8.328125 -1.03125 L 8.4375 -1 L 8.578125 -0.125 C 8.484375 -0.0625 8.359375 -0.015625 8.203125 0.015625 C 8.054688 0.046875 7.90625 0.0625 7.75 0.0625 C 7.28125 0.0625 6.925781 -0.0390625 6.6875 -0.25 C 6.445312 -0.457031 6.289062 -0.757812 6.21875 -1.15625 L 6.0625 -1.171875 C 5.8125 -0.722656 5.476562 -0.390625 5.0625 -0.171875 C 4.65625 0.046875 4.140625 0.15625 3.515625 0.15625 Z M 3.796875 -0.84375 C 4.273438 -0.84375 4.6875 -0.953125 5.03125 -1.171875 C 5.375 -1.390625 5.640625 -1.695312 5.828125 -2.09375 C 6.015625 -2.488281 6.109375 -2.945312 6.109375 -3.46875 L 6.109375 -4.5625 L 5.96875 -4.59375 C 5.769531 -4.457031 5.535156 -4.34375 5.265625 -4.25 C 4.992188 -4.15625 4.613281 -4.070312 4.125 -4 C 3.625 -3.9375 3.226562 -3.832031 2.9375 -3.6875 C 2.644531 -3.550781 2.4375 -3.375 2.3125 -3.15625 C 2.195312 -2.945312 2.140625 -2.6875 2.140625 -2.375 C 2.140625 -1.875 2.285156 -1.492188 2.578125 -1.234375 C 2.867188 -0.972656 3.273438 -0.84375 3.796875 -0.84375 Z M 3.796875 -0.84375 "/></g></g></g><g fill="#5e5e5e" fill-opacity="1"><g transform="translate(239.872721, 68.985265)"><g><path d="M 1.484375 0 L 1.484375 -8.53125 L 2.6875 -8.53125 L 2.6875 -7.1875 L 2.84375 -7.15625 C 3.125 -7.65625 3.484375 -8.035156 3.921875 -8.296875 C 4.367188 -8.566406 4.910156 -8.703125 5.546875 -8.703125 C 6.578125 -8.703125 7.320312 -8.4375 7.78125 -7.90625 C 8.238281 -7.382812 8.46875 -6.582031 8.46875 -5.5 L 8.46875 0 L 7.203125 0 L 7.203125 -5.46875 C 7.203125 -5.976562 7.132812 -6.390625 7 -6.703125 C 6.875 -7.015625 6.671875 -7.238281 6.390625 -7.375 C 6.117188 -7.519531 5.757812 -7.59375 5.3125 -7.59375 C 4.539062 -7.59375 3.921875 -7.335938 3.453125 -6.828125 C 2.984375 -6.328125 2.75 -5.507812 2.75 -4.375 L 2.75 0 Z M 1.484375 0 "/></g></g></g><g fill="#5e5e5e" fill-opacity="1"><g transform="translate(249.700325, 68.985265)"><g><path d="M 4.421875 0.15625 C 3.734375 0.15625 3.128906 -0.00390625 2.609375 -0.328125 C 2.085938 -0.648438 1.675781 -1.140625 1.375 -1.796875 C 1.082031 -2.460938 0.9375 -3.285156 0.9375 -4.265625 C 0.9375 -5.234375 1.085938 -6.050781 1.390625 -6.71875 C 1.703125 -7.382812 2.128906 -7.878906 2.671875 -8.203125 C 3.222656 -8.535156 3.859375 -8.703125 4.578125 -8.703125 C 5.140625 -8.703125 5.644531 -8.59375 6.09375 -8.375 C 6.550781 -8.15625 6.941406 -7.800781 7.265625 -7.3125 L 7.4375 -7.34375 L 7.4375 -11.953125 L 8.703125 -11.953125 L 8.703125 0 L 7.4375 0 L 7.4375 -1.25 L 7.265625 -1.28125 C 6.992188 -0.851562 6.617188 -0.503906 6.140625 -0.234375 C 5.660156 0.0234375 5.085938 0.15625 4.421875 0.15625 Z M 4.8125 -0.96875 C 5.613281 -0.96875 6.25 -1.238281 6.71875 -1.78125 C 7.195312 -2.320312 7.4375 -3.148438 7.4375 -4.265625 C 7.4375 -5.378906 7.195312 -6.207031 6.71875 -6.75 C 6.25 -7.289062 5.613281 -7.5625 4.8125 -7.5625 C 4 -7.5625 3.367188 -7.296875 2.921875 -6.765625 C 2.484375 -6.234375 2.265625 -5.398438 2.265625 -4.265625 C 2.265625 -2.066406 3.113281 -0.96875 4.8125 -0.96875 Z M 4.8125 -0.96875 "/></g></g></g><g fill="#5e5e5e" fill-opacity="1"><g transform="translate(259.891635, 68.985265)"><g/></g></g><g fill="#5e5e5e" fill-opacity="1"><g transform="translate(263.776247, 68.985265)"><g><path d="M 6.25 0.15625 C 5.257812 0.15625 4.375 -0.0664062 3.59375 -0.515625 C 2.820312 -0.972656 2.21875 -1.640625 1.78125 -2.515625 C 1.34375 -3.390625 1.125 -4.4375 1.125 -5.65625 C 1.125 -6.875 1.34375 -7.921875 1.78125 -8.796875 C 2.21875 -9.671875 2.820312 -10.332031 3.59375 -10.78125 C 4.375 -11.238281 5.257812 -11.46875 6.25 -11.46875 C 7.3125 -11.46875 8.191406 -11.269531 8.890625 -10.875 C 9.585938 -10.476562 10.09375 -9.875 10.40625 -9.0625 L 9.546875 -8.5 L 9.359375 -8.5 C 9.046875 -9.144531 8.640625 -9.601562 8.140625 -9.875 C 7.648438 -10.144531 7.019531 -10.28125 6.25 -10.28125 C 5.539062 -10.28125 4.910156 -10.117188 4.359375 -9.796875 C 3.804688 -9.484375 3.363281 -8.984375 3.03125 -8.296875 C 2.707031 -7.609375 2.546875 -6.726562 2.546875 -5.65625 C 2.546875 -4.582031 2.707031 -3.703125 3.03125 -3.015625 C 3.363281 -2.328125 3.804688 -1.820312 4.359375 -1.5 C 4.910156 -1.1875 5.539062 -1.03125 6.25 -1.03125 C 7.070312 -1.03125 7.742188 -1.210938 8.265625 -1.578125 C 8.785156 -1.953125 9.171875 -2.550781 9.421875 -3.375 L 9.609375 -3.375 L 10.5 -2.9375 C 10.238281 -1.9375 9.742188 -1.171875 9.015625 -0.640625 C 8.285156 -0.109375 7.363281 0.15625 6.25 0.15625 Z M 6.25 0.15625 "/></g></g></g><g fill="#5e5e5e" fill-opacity="1"><g transform="translate(274.87294, 68.985265)"><g><path d="M 1.484375 0 L 1.484375 -11.953125 L 2.75 -11.953125 L 2.75 -7.3125 L 2.90625 -7.28125 C 3.519531 -8.226562 4.398438 -8.703125 5.546875 -8.703125 C 6.578125 -8.703125 7.320312 -8.4375 7.78125 -7.90625 C 8.238281 -7.382812 8.46875 -6.582031 8.46875 -5.5 L 8.46875 0 L 7.203125 0 L 7.203125 -5.46875 C 7.203125 -5.976562 7.132812 -6.390625 7 -6.703125 C 6.875 -7.015625 6.671875 -7.238281 6.390625 -7.375 C 6.117188 -7.519531 5.757812 -7.59375 5.3125 -7.59375 C 4.539062 -7.59375 3.921875 -7.34375 3.453125 -6.84375 C 2.984375 -6.34375 2.75 -5.519531 2.75 -4.375 L 2.75 0 Z M 1.484375 0 "/></g></g></g><g fill="#5e5e5e" fill-opacity="1"><g transform="translate(284.700556, 68.985265)"><g><path d="M 3.515625 0.15625 C 2.679688 0.15625 2.023438 -0.0625 1.546875 -0.5 C 1.078125 -0.9375 0.84375 -1.5625 0.84375 -2.375 C 0.84375 -2.882812 0.945312 -3.3125 1.15625 -3.65625 C 1.363281 -4 1.6875 -4.28125 2.125 -4.5 C 2.5625 -4.71875 3.132812 -4.890625 3.84375 -5.015625 C 4.457031 -5.117188 4.925781 -5.234375 5.25 -5.359375 C 5.570312 -5.484375 5.789062 -5.625 5.90625 -5.78125 C 6.019531 -5.945312 6.078125 -6.148438 6.078125 -6.390625 C 6.078125 -6.785156 5.941406 -7.082031 5.671875 -7.28125 C 5.410156 -7.488281 4.984375 -7.59375 4.390625 -7.59375 C 3.835938 -7.59375 3.363281 -7.484375 2.96875 -7.265625 C 2.570312 -7.054688 2.210938 -6.742188 1.890625 -6.328125 L 1.734375 -6.328125 L 1.109375 -7.1875 C 1.472656 -7.65625 1.929688 -8.023438 2.484375 -8.296875 C 3.046875 -8.566406 3.679688 -8.703125 4.390625 -8.703125 C 5.398438 -8.703125 6.140625 -8.476562 6.609375 -8.03125 C 7.085938 -7.59375 7.328125 -6.984375 7.328125 -6.203125 L 7.328125 -1.671875 C 7.328125 -1.203125 7.53125 -0.96875 7.9375 -0.96875 C 8.070312 -0.96875 8.203125 -0.988281 8.328125 -1.03125 L 8.4375 -1 L 8.578125 -0.125 C 8.484375 -0.0625 8.359375 -0.015625 8.203125 0.015625 C 8.054688 0.046875 7.90625 0.0625 7.75 0.0625 C 7.28125 0.0625 6.925781 -0.0390625 6.6875 -0.25 C 6.445312 -0.457031 6.289062 -0.757812 6.21875 -1.15625 L 6.0625 -1.171875 C 5.8125 -0.722656 5.476562 -0.390625 5.0625 -0.171875 C 4.65625 0.046875 4.140625 0.15625 3.515625 0.15625 Z M 3.796875 -0.84375 C 4.273438 -0.84375 4.6875 -0.953125 5.03125 -1.171875 C 5.375 -1.390625 5.640625 -1.695312 5.828125 -2.09375 C 6.015625 -2.488281 6.109375 -2.945312 6.109375 -3.46875 L 6.109375 -4.5625 L 5.96875 -4.59375 C 5.769531 -4.457031 5.535156 -4.34375 5.265625 -4.25 C 4.992188 -4.15625 4.613281 -4.070312 4.125 -4 C 3.625 -3.9375 3.226562 -3.832031 2.9375 -3.6875 C 2.644531 -3.550781 2.4375 -3.375 2.3125 -3.15625 C 2.195312 -2.945312 2.140625 -2.6875 2.140625 -2.375 C 2.140625 -1.875 2.285156 -1.492188 2.578125 -1.234375 C 2.867188 -0.972656 3.273438 -0.84375 3.796875 -0.84375 Z M 3.796875 -0.84375 "/></g></g></g><g fill="#5e5e5e" fill-opacity="1"><g transform="translate(293.529919, 68.985265)"><g><path d="M 5.765625 -1.359375 L 6.171875 -0.453125 C 5.972656 -0.242188 5.707031 -0.09375 5.375 0 C 5.050781 0.101562 4.695312 0.15625 4.3125 0.15625 C 2.6875 0.15625 1.875 -0.664062 1.875 -2.3125 L 1.875 -7.5 L 0.390625 -7.5 L 0.390625 -8.546875 L 1.875 -8.546875 L 1.875 -10.34375 L 3.140625 -10.546875 L 3.140625 -8.546875 L 5.875 -8.546875 L 5.875 -7.5 L 3.140625 -7.5 L 3.140625 -2.4375 C 3.140625 -1.457031 3.5625 -0.96875 4.40625 -0.96875 C 4.875 -0.96875 5.273438 -1.097656 5.609375 -1.359375 Z M 5.765625 -1.359375 "/></g></g></g></svg>