<svg xmlns="http://www.w3.org/2000/svg" xmlns:xlink="http://www.w3.org/1999/xlink" width="262" zoomAndPan="magnify" viewBox="0 0 196.5 204.749995" height="273" preserveAspectRatio="xMidYMid meet" version="1.0"><defs><clipPath id="08d84b1f24"><path d="M 66.304688 59.402344 L 129.144531 59.402344 L 129.144531 144.6875 L 66.304688 144.6875 Z M 66.304688 59.402344 " clip-rule="nonzero"/></clipPath></defs><path fill="#34a853" d="M 178.636719 105.613281 C 178.597656 123.980469 172.476562 142.1875 161.644531 156.984375 C 151.324219 171.113281 136.804688 182.023438 120.359375 187.949219 C 103.289062 194.109375 84.375 194.816406 66.910156 190.027344 C 49.996094 185.355469 34.652344 175.585938 23.230469 162.242188 C 11.695312 148.742188 4.394531 131.867188 2.550781 114.207031 C 0.589844 95.332031 5.492188 75.90625 15.578125 59.894531 C 24.878906 45.101562 38.578125 33.25 54.546875 26.144531 C 71.1875 18.769531 90.023438 16.726562 107.878906 20.335938 C 125.070312 23.792969 141.042969 32.503906 153.324219 45.023438 C 165.6875 57.621094 174.125 73.828125 177.261719 91.210938 C 178.167969 96.15625 178.636719 101.179688 178.636719 106.203125 C 178.636719 107.539062 178.675781 106.242188 178.636719 105.613281 C 178.597656 87.601562 173.496094 70.019531 163.292969 55.109375 C 153.011719 40.117188 138.136719 28.421875 121.105469 22.105469 C 103.445312 15.550781 83.746094 14.84375 65.617188 20.140625 C 48.113281 25.242188 32.414062 35.839844 21.074219 50.164062 C 9.691406 64.527344 3.0625 82.265625 2.160156 100.550781 C 1.296875 118.09375 4.945312 135.519531 13.734375 150.785156 C 22.722656 166.441406 36.535156 179.195312 52.902344 186.886719 C 70.011719 194.933594 89.632812 197.207031 108.15625 193.402344 C 126.011719 189.753906 142.492188 180.453125 154.933594 167.109375 C 167.453125 153.726562 175.574219 136.5 177.929688 118.328125 C 178.441406 114.289062 178.675781 110.246094 178.675781 106.164062 C 178.675781 105.535156 178.636719 104.242188 178.636719 105.613281 Z M 178.636719 105.613281 " fill-opacity="1" fill-rule="nonzero"/><path fill="#34a853" d="M 114.589844 190.851562 C 97.050781 194.933594 78.527344 193.675781 61.769531 187.042969 C 45.484375 180.570312 31.277344 169.265625 21.386719 154.785156 C 10.832031 139.363281 4.984375 120.09375 6.121094 101.335938 C 7.222656 83.636719 13.8125 66.449219 24.722656 52.476562 C 47.132812 23.832031 86.101562 11.703125 120.792969 22.652344 C 137.3125 27.871094 152.148438 37.957031 163.019531 51.457031 C 174.59375 65.78125 181.421875 83.675781 182.445312 102.042969 C 184.484375 138.460938 160.859375 173.347656 127.386719 186.808594 C 123.226562 188.457031 118.949219 189.792969 114.589844 190.851562 C 114.433594 190.890625 114.710938 192.773438 114.589844 192.8125 C 132.722656 188.457031 149.164062 178.527344 161.332031 164.363281 C 173.222656 150.507812 180.597656 133.007812 182.246094 114.835938 C 183.816406 97.492188 180.71875 79.832031 172.710938 64.328125 C 164.3125 48.042969 150.773438 34.660156 134.449219 26.304688 C 118.042969 17.867188 99.128906 14.804688 80.882812 17.628906 C 62.359375 20.496094 44.972656 29.285156 31.707031 42.589844 C 18.875 55.5 10.203125 72.335938 7.179688 90.308594 C 4.316406 107.339844 6.238281 125.316406 12.949219 141.246094 C 20.054688 158.121094 32.492188 172.523438 48.113281 182.140625 C 63.808594 191.753906 82.410156 196.34375 100.777344 194.933594 C 105.449219 194.578125 110.039062 193.832031 114.589844 192.773438 C 114.75 192.773438 114.472656 190.890625 114.589844 190.851562 Z M 114.589844 190.851562 " fill-opacity="1" fill-rule="nonzero"/><path fill="#34a853" d="M 134.214844 182.804688 C 117.769531 191.636719 98.578125 194.972656 80.136719 192.421875 C 62.554688 189.988281 45.796875 182.335938 32.570312 170.484375 C 18.835938 158.238281 9.066406 141.679688 4.945312 123.746094 C 0.941406 106.398438 2.277344 87.953125 8.671875 71.355469 C 15.148438 54.558594 26.726562 39.882812 41.597656 29.71875 C 57.492188 18.847656 77.230469 13.863281 96.382812 15.15625 C 114.082031 16.335938 131.269531 22.808594 145.320312 33.640625 C 159.957031 44.945312 170.828125 60.796875 176.242188 78.457031 C 181.460938 95.488281 181.382812 113.933594 176.164062 130.925781 C 170.90625 148.035156 160.46875 163.421875 146.457031 174.566406 C 142.492188 177.742188 138.214844 180.609375 133.742188 183.042969 C 132.527344 183.710938 133.664062 183.121094 134.214844 182.804688 C 150.265625 174.09375 163.488281 161.027344 171.886719 144.738281 C 180.324219 128.335938 183.582031 109.421875 180.992188 91.132812 C 178.324219 72.179688 169.453125 54.285156 155.992188 40.667969 C 143.003906 27.480469 125.933594 18.609375 107.722656 15.394531 C 89.4375 12.175781 70.363281 14.804688 53.605469 22.808594 C 37.554688 30.503906 23.742188 42.15625 14.363281 57.34375 C 4.710938 72.964844 0 91.449219 1.058594 109.734375 C 2.160156 128.886719 9.574219 147.488281 21.898438 162.203125 C 33.789062 176.371094 50.035156 186.613281 67.929688 191.28125 C 85.90625 195.992188 105.210938 194.933594 122.558594 188.261719 C 126.402344 186.769531 130.132812 185.003906 133.78125 183.042969 C 134.292969 182.804688 135.46875 182.140625 134.214844 182.804688 Z M 134.214844 182.804688 " fill-opacity="1" fill-rule="nonzero"/><path fill="#34a853" d="M 27.234375 166.757812 C 15.109375 153.058594 7.339844 135.949219 5.179688 117.78125 C 3.101562 100.121094 6.316406 81.988281 14.480469 66.175781 C 23.152344 49.300781 37.554688 34.78125 54.824219 26.773438 C 71.148438 19.199219 89.671875 16.804688 107.410156 19.789062 C 143.789062 25.949219 173.417969 54.871094 180.363281 91.132812 C 183.660156 108.402344 181.816406 126.53125 175.027344 142.738281 C 167.84375 159.964844 155.167969 174.683594 139.277344 184.492188 C 107.761719 203.878906 65.222656 199.601562 37.046875 176.253906 C 33.554688 173.308594 30.296875 170.128906 27.234375 166.757812 C 27.117188 166.636719 25.585938 167.816406 25.46875 167.699219 C 38.105469 181.785156 54.902344 191.675781 73.425781 195.679688 C 91.515625 199.601562 110.707031 197.757812 127.738281 190.460938 C 143.945312 183.472656 158.230469 172.210938 168.199219 157.613281 C 178.675781 142.269531 184.132812 123.707031 183.699219 105.144531 C 183.269531 86.425781 176.910156 68.058594 165.570312 53.144531 C 154.070312 37.996094 137.863281 26.695312 119.574219 21.28125 C 101.914062 16.019531 82.648438 16.375 65.183594 22.339844 C 48.582031 28.03125 33.4375 38.390625 22.449219 52.085938 C 10.832031 66.566406 3.964844 84.617188 2.941406 103.179688 C 1.921875 121.859375 6.828125 140.621094 16.914062 156.355469 C 19.464844 160.359375 22.367188 164.125 25.507812 167.660156 C 25.625 167.816406 27.15625 166.636719 27.234375 166.757812 Z M 27.234375 166.757812 " fill-opacity="1" fill-rule="nonzero"/><path fill="#4285f4" d="M 189.597656 96.640625 C 189.558594 115.007812 183.4375 133.214844 172.605469 148.011719 C 162.285156 162.140625 147.765625 173.050781 131.320312 178.976562 C 114.25 185.136719 95.335938 185.84375 77.871094 181.054688 C 60.957031 176.382812 45.613281 166.613281 34.191406 153.269531 C 22.65625 139.769531 15.355469 122.894531 13.511719 105.234375 C 11.550781 86.359375 16.453125 66.933594 26.539062 50.921875 C 35.839844 36.128906 49.535156 24.277344 65.507812 17.171875 C 82.148438 9.796875 100.984375 7.753906 118.839844 11.363281 C 136.03125 14.820312 152.003906 23.53125 164.285156 36.050781 C 176.648438 48.648438 185.085938 64.855469 188.222656 82.238281 C 189.125 87.183594 189.597656 92.207031 189.597656 97.230469 C 189.597656 98.566406 189.636719 97.269531 189.597656 96.640625 C 189.558594 78.628906 184.457031 61.046875 174.253906 46.136719 C 163.972656 31.144531 149.097656 19.449219 132.066406 13.132812 C 114.40625 6.578125 94.707031 5.871094 76.574219 11.167969 C 59.074219 16.269531 43.375 26.867188 32.035156 41.191406 C 20.652344 55.554688 14.019531 73.292969 13.117188 91.578125 C 12.253906 109.121094 15.90625 126.546875 24.695312 141.8125 C 33.683594 157.46875 47.496094 170.222656 63.859375 177.914062 C 80.972656 185.960938 100.59375 188.234375 119.117188 184.429688 C 136.972656 180.78125 153.453125 171.480469 165.894531 158.136719 C 178.414062 144.753906 186.535156 127.527344 188.890625 109.355469 C 189.402344 105.3125 189.636719 101.273438 189.636719 97.191406 C 189.636719 96.5625 189.597656 95.269531 189.597656 96.640625 Z M 189.597656 96.640625 " fill-opacity="1" fill-rule="nonzero"/><path fill="#4285f4" d="M 125.550781 181.878906 C 108.011719 185.960938 89.488281 184.703125 72.730469 178.070312 C 56.445312 171.597656 42.238281 160.292969 32.347656 145.8125 C 21.792969 130.390625 15.945312 111.121094 17.082031 92.363281 C 18.179688 74.664062 24.773438 57.476562 35.683594 43.503906 C 58.09375 14.859375 97.0625 2.730469 131.753906 13.679688 C 148.273438 18.898438 163.109375 28.984375 173.976562 42.484375 C 185.554688 56.808594 192.382812 74.703125 193.402344 93.070312 C 195.445312 129.488281 171.820312 164.375 138.34375 177.835938 C 134.183594 179.484375 129.90625 180.820312 125.550781 181.878906 C 125.394531 181.917969 125.667969 183.800781 125.550781 183.839844 C 143.683594 179.484375 160.125 169.554688 172.289062 155.390625 C 184.183594 141.535156 191.558594 124.035156 193.207031 105.863281 C 194.777344 88.519531 191.675781 70.859375 183.671875 55.355469 C 175.273438 39.070312 161.734375 25.6875 145.410156 17.332031 C 129.003906 8.894531 110.089844 5.832031 91.839844 8.65625 C 73.320312 11.523438 55.933594 20.3125 42.667969 33.617188 C 29.835938 46.527344 21.164062 63.363281 18.140625 81.335938 C 15.277344 98.367188 17.199219 116.34375 23.910156 132.273438 C 31.015625 149.148438 43.453125 163.550781 59.074219 173.167969 C 74.769531 182.78125 93.371094 187.371094 111.738281 185.960938 C 116.40625 185.605469 121 184.859375 125.550781 183.800781 C 125.707031 183.800781 125.433594 181.917969 125.550781 181.878906 Z M 125.550781 181.878906 " fill-opacity="1" fill-rule="nonzero"/><path fill="#4285f4" d="M 145.171875 173.832031 C 128.730469 182.664062 109.539062 186 91.097656 183.449219 C 73.515625 181.015625 56.757812 173.363281 43.53125 161.511719 C 29.796875 149.265625 20.027344 132.707031 15.90625 114.773438 C 11.902344 97.425781 13.238281 78.980469 19.632812 62.382812 C 26.109375 45.585938 37.683594 30.910156 52.558594 20.746094 C 68.453125 9.875 88.191406 4.890625 107.34375 6.183594 C 125.042969 7.363281 142.230469 13.835938 156.28125 24.667969 C 170.917969 35.972656 181.789062 51.824219 187.203125 69.484375 C 192.421875 86.515625 192.34375 104.960938 187.125 121.953125 C 181.867188 139.0625 171.425781 154.449219 157.417969 165.59375 C 153.453125 168.769531 149.175781 171.636719 144.703125 174.070312 C 143.484375 174.738281 144.625 174.148438 145.171875 173.832031 C 161.222656 165.121094 174.449219 152.054688 182.847656 135.765625 C 191.285156 119.363281 194.542969 100.449219 191.953125 82.160156 C 189.285156 63.207031 180.414062 45.3125 166.953125 31.691406 C 153.964844 18.507812 136.894531 9.636719 118.683594 6.421875 C 100.398438 3.203125 81.324219 5.832031 64.566406 13.835938 C 48.515625 21.527344 34.703125 33.183594 25.324219 48.371094 C 15.667969 63.992188 10.960938 82.472656 12.019531 100.761719 C 13.117188 119.914062 20.535156 138.515625 32.859375 153.230469 C 44.75 167.398438 60.996094 177.640625 78.890625 182.308594 C 96.863281 187.019531 116.171875 185.960938 133.519531 179.289062 C 137.363281 177.796875 141.09375 176.03125 144.742188 174.070312 C 145.253906 173.832031 146.429688 173.167969 145.171875 173.832031 Z M 145.171875 173.832031 " fill-opacity="1" fill-rule="nonzero"/><path fill="#4285f4" d="M 38.195312 157.78125 C 26.070312 144.085938 18.300781 126.976562 16.140625 108.808594 C 14.0625 91.148438 17.277344 73.015625 25.441406 57.203125 C 34.113281 40.328125 48.515625 25.808594 65.785156 17.800781 C 82.109375 10.226562 100.632812 7.832031 118.371094 10.816406 C 154.75 16.976562 184.378906 45.898438 191.324219 82.160156 C 194.621094 99.429688 192.777344 117.558594 185.988281 133.765625 C 178.804688 150.992188 166.128906 165.710938 150.234375 175.519531 C 118.722656 194.90625 76.183594 190.628906 48.007812 167.28125 C 44.515625 164.335938 41.257812 161.15625 38.195312 157.78125 C 38.078125 157.664062 36.546875 158.84375 36.429688 158.726562 C 49.066406 172.8125 65.863281 182.703125 84.386719 186.707031 C 102.476562 190.628906 121.667969 188.785156 138.699219 181.484375 C 154.90625 174.5 169.191406 163.238281 179.160156 148.640625 C 189.636719 133.296875 195.089844 114.734375 194.660156 96.171875 C 194.226562 77.453125 187.871094 59.085938 176.527344 44.171875 C 165.03125 29.023438 148.824219 17.722656 130.535156 12.308594 C 112.875 7.046875 93.609375 7.402344 76.144531 13.367188 C 59.542969 19.058594 44.394531 29.417969 33.40625 43.113281 C 21.792969 57.59375 14.925781 75.644531 13.902344 94.207031 C 12.882812 112.886719 17.789062 131.648438 27.875 147.382812 C 30.425781 151.386719 33.328125 155.152344 36.46875 158.6875 C 36.585938 158.84375 38.117188 157.664062 38.195312 157.78125 Z M 38.195312 157.78125 " fill-opacity="1" fill-rule="nonzero"/><path fill="#fbbc05" d="M 183.40625 100.355469 C 183.367188 118.722656 177.246094 136.929688 166.414062 151.726562 C 156.09375 165.855469 141.574219 176.761719 125.128906 182.6875 C 108.058594 188.851562 89.144531 189.558594 71.679688 184.769531 C 54.765625 180.097656 39.421875 170.328125 28 156.984375 C 16.464844 143.484375 9.164062 126.609375 7.320312 108.949219 C 5.359375 90.074219 10.265625 70.648438 20.347656 54.636719 C 29.648438 39.84375 43.347656 27.992188 59.316406 20.886719 C 75.957031 13.511719 94.792969 11.46875 112.652344 15.078125 C 129.839844 18.53125 145.8125 27.246094 158.09375 39.765625 C 170.457031 52.359375 178.894531 68.570312 182.03125 85.953125 C 182.9375 90.898438 183.40625 95.921875 183.40625 100.945312 C 183.40625 102.277344 183.445312 100.984375 183.40625 100.355469 C 183.367188 82.34375 178.265625 64.761719 168.0625 49.847656 C 157.78125 34.859375 142.90625 23.164062 125.875 16.84375 C 108.214844 10.292969 88.515625 9.585938 70.386719 14.882812 C 52.882812 19.984375 37.183594 30.582031 25.84375 44.90625 C 14.460938 59.269531 7.832031 77.007812 6.929688 95.292969 C 6.066406 112.835938 9.714844 130.257812 18.503906 145.527344 C 27.492188 161.183594 41.304688 173.9375 57.671875 181.628906 C 74.78125 189.675781 94.402344 191.949219 112.925781 188.144531 C 130.78125 184.496094 147.261719 175.195312 159.703125 161.851562 C 172.222656 148.46875 180.34375 131.242188 182.699219 113.070312 C 183.210938 109.027344 183.445312 104.988281 183.445312 100.90625 C 183.445312 100.277344 183.40625 98.984375 183.40625 100.355469 Z M 183.40625 100.355469 " fill-opacity="1" fill-rule="nonzero"/><path fill="#fbbc05" d="M 119.359375 185.59375 C 101.820312 189.675781 83.296875 188.417969 66.539062 181.785156 C 50.253906 175.3125 36.046875 164.007812 26.15625 149.527344 C 15.601562 134.105469 9.753906 114.835938 10.890625 96.078125 C 11.992188 78.378906 18.582031 61.191406 29.492188 47.21875 C 51.902344 18.570312 90.871094 6.445312 125.5625 17.394531 C 142.082031 22.613281 156.917969 32.699219 167.789062 46.199219 C 179.363281 60.523438 186.191406 78.417969 187.214844 96.785156 C 189.253906 133.203125 165.628906 168.089844 132.15625 181.550781 C 127.996094 183.199219 123.71875 184.535156 119.359375 185.59375 C 119.203125 185.632812 119.480469 187.515625 119.359375 187.554688 C 137.492188 183.199219 153.933594 173.269531 166.101562 159.105469 C 177.992188 145.25 185.367188 127.746094 187.015625 109.578125 C 188.585938 92.234375 185.488281 74.574219 177.480469 59.070312 C 169.082031 42.785156 155.542969 29.402344 139.21875 21.042969 C 122.816406 12.605469 103.898438 9.546875 85.652344 12.371094 C 67.128906 15.238281 49.742188 24.027344 36.476562 37.332031 C 23.644531 50.242188 14.972656 67.078125 11.953125 85.050781 C 9.085938 102.082031 11.007812 120.054688 17.71875 135.988281 C 24.824219 152.863281 37.261719 167.265625 52.882812 176.882812 C 68.578125 186.496094 87.179688 191.085938 105.546875 189.675781 C 110.21875 189.320312 114.808594 188.574219 119.359375 187.515625 C 119.519531 187.515625 119.242188 185.632812 119.359375 185.59375 Z M 119.359375 185.59375 " fill-opacity="1" fill-rule="nonzero"/><path fill="#fbbc05" d="M 138.984375 177.546875 C 122.539062 186.378906 103.351562 189.714844 84.90625 187.164062 C 67.324219 184.730469 50.566406 177.078125 37.34375 165.226562 C 23.605469 152.980469 13.835938 136.421875 9.714844 118.488281 C 5.710938 101.140625 7.046875 82.695312 13.441406 66.097656 C 19.917969 49.300781 31.496094 34.621094 46.367188 24.457031 C 62.261719 13.589844 82 8.605469 101.152344 9.898438 C 118.851562 11.078125 136.039062 17.550781 150.089844 28.382812 C 164.726562 39.683594 175.597656 55.539062 181.011719 73.199219 C 186.230469 90.230469 186.152344 108.675781 180.933594 125.667969 C 175.675781 142.777344 165.238281 158.160156 151.226562 169.308594 C 147.261719 172.484375 142.984375 175.351562 138.511719 177.785156 C 137.296875 178.449219 138.433594 177.863281 138.984375 177.546875 C 155.035156 168.835938 168.257812 155.769531 176.65625 139.480469 C 185.09375 123.078125 188.351562 104.164062 185.761719 85.875 C 183.09375 66.921875 174.222656 49.023438 160.761719 35.40625 C 147.773438 22.222656 130.703125 13.351562 112.492188 10.136719 C 94.207031 6.917969 75.132812 9.546875 58.375 17.550781 C 42.324219 25.242188 28.511719 36.898438 19.132812 52.085938 C 9.480469 67.707031 4.769531 86.1875 5.828125 104.476562 C 6.929688 123.628906 14.34375 142.230469 26.667969 156.945312 C 38.558594 171.113281 54.804688 181.355469 72.699219 186.023438 C 90.675781 190.734375 109.980469 189.675781 127.328125 183.003906 C 131.171875 181.511719 134.902344 179.746094 138.550781 177.785156 C 139.0625 177.546875 140.238281 176.882812 138.984375 177.546875 Z M 138.984375 177.546875 " fill-opacity="1" fill-rule="nonzero"/><path fill="#fbbc05" d="M 32.003906 161.496094 C 19.878906 147.800781 12.109375 130.691406 9.949219 112.523438 C 7.871094 94.863281 11.085938 76.730469 19.25 60.917969 C 27.921875 44.042969 42.324219 29.519531 59.59375 21.515625 C 75.917969 13.941406 94.441406 11.546875 112.179688 14.53125 C 148.558594 20.691406 178.1875 49.613281 185.132812 85.875 C 188.429688 103.140625 186.585938 121.273438 179.796875 137.480469 C 172.613281 154.707031 159.9375 169.425781 144.046875 179.234375 C 112.53125 198.621094 69.992188 194.34375 41.816406 170.996094 C 38.324219 168.050781 35.066406 164.871094 32.003906 161.496094 C 31.886719 161.378906 30.355469 162.558594 30.238281 162.4375 C 42.875 176.527344 59.671875 186.417969 78.195312 190.421875 C 96.285156 194.34375 115.476562 192.5 132.507812 185.199219 C 148.714844 178.214844 163 166.953125 172.96875 152.355469 C 183.445312 137.007812 188.902344 118.449219 188.46875 99.886719 C 188.039062 81.164062 181.679688 62.800781 170.339844 47.886719 C 158.839844 32.738281 142.632812 21.4375 124.34375 16.019531 C 106.683594 10.761719 87.417969 11.117188 69.953125 17.082031 C 53.351562 22.769531 38.207031 33.132812 27.21875 46.828125 C 15.601562 61.308594 8.734375 79.359375 7.714844 97.921875 C 6.691406 116.601562 11.597656 135.359375 21.683594 151.097656 C 24.234375 155.101562 27.136719 158.867188 30.277344 162.398438 C 30.394531 162.558594 31.925781 161.378906 32.003906 161.496094 Z M 32.003906 161.496094 " fill-opacity="1" fill-rule="nonzero"/><path fill="#ea4335" d="M 178.636719 94.164062 C 178.597656 112.53125 172.476562 130.742188 161.644531 145.535156 C 151.324219 159.664062 136.804688 170.574219 120.359375 176.5 C 103.289062 182.660156 84.375 183.367188 66.910156 178.578125 C 49.996094 173.910156 34.652344 164.136719 23.230469 150.792969 C 11.695312 137.292969 4.394531 120.417969 2.550781 102.757812 C 0.589844 83.882812 5.492188 64.457031 15.578125 48.445312 C 24.878906 33.652344 38.578125 21.800781 54.546875 14.695312 C 71.1875 7.320312 90.023438 5.277344 107.878906 8.890625 C 125.070312 12.34375 141.042969 21.054688 153.324219 33.574219 C 165.6875 46.171875 174.125 62.378906 177.261719 79.761719 C 178.167969 84.707031 178.636719 89.730469 178.636719 94.753906 C 178.636719 96.089844 178.675781 94.792969 178.636719 94.164062 C 178.597656 76.152344 173.496094 58.570312 163.292969 43.660156 C 153.011719 28.667969 138.136719 16.972656 121.105469 10.65625 C 103.445312 4.101562 83.746094 3.394531 65.617188 8.691406 C 48.113281 13.792969 32.414062 24.390625 21.074219 38.714844 C 9.691406 53.078125 3.0625 70.816406 2.160156 89.101562 C 1.296875 106.644531 4.945312 124.070312 13.734375 139.335938 C 22.722656 154.992188 36.535156 167.746094 52.902344 175.4375 C 70.011719 183.484375 89.632812 185.761719 108.15625 181.953125 C 126.011719 178.304688 142.492188 169.003906 154.933594 155.660156 C 167.453125 142.277344 175.574219 125.050781 177.929688 106.878906 C 178.441406 102.839844 178.675781 98.796875 178.675781 94.714844 C 178.675781 94.085938 178.636719 92.792969 178.636719 94.164062 Z M 178.636719 94.164062 " fill-opacity="1" fill-rule="nonzero"/><path fill="#ea4335" d="M 114.589844 179.402344 C 97.050781 183.484375 78.527344 182.226562 61.769531 175.597656 C 45.484375 169.121094 31.277344 157.820312 21.386719 143.335938 C 10.832031 127.914062 4.984375 108.644531 6.121094 89.886719 C 7.222656 72.1875 13.8125 55 24.722656 41.03125 C 47.132812 12.382812 86.101562 0.253906 120.792969 11.203125 C 137.3125 16.421875 152.148438 26.507812 163.019531 40.007812 C 174.59375 54.332031 181.421875 72.226562 182.445312 90.59375 C 184.484375 127.011719 160.859375 161.898438 127.386719 175.359375 C 123.226562 177.007812 118.949219 178.34375 114.589844 179.402344 C 114.433594 179.441406 114.710938 181.324219 114.589844 181.363281 C 132.722656 177.007812 149.164062 167.078125 161.332031 152.914062 C 173.222656 139.058594 180.597656 121.558594 182.246094 103.386719 C 183.816406 86.042969 180.71875 68.382812 172.710938 52.882812 C 164.3125 36.59375 150.773438 23.210938 134.449219 14.855469 C 118.042969 6.417969 99.128906 3.355469 80.882812 6.179688 C 62.359375 9.046875 44.972656 17.835938 31.707031 31.140625 C 18.875 44.050781 10.203125 60.886719 7.179688 78.859375 C 4.316406 95.890625 6.238281 113.867188 12.949219 129.796875 C 20.054688 146.671875 32.492188 161.074219 48.113281 170.691406 C 63.808594 180.304688 82.410156 184.898438 100.777344 183.484375 C 105.449219 183.128906 110.039062 182.386719 114.589844 181.324219 C 114.75 181.324219 114.472656 179.441406 114.589844 179.402344 Z M 114.589844 179.402344 " fill-opacity="1" fill-rule="nonzero"/><path fill="#ea4335" d="M 134.214844 171.359375 C 117.769531 180.1875 98.578125 183.523438 80.136719 180.972656 C 62.554688 178.539062 45.796875 170.886719 32.570312 159.035156 C 18.835938 146.789062 9.066406 130.230469 4.945312 112.296875 C 0.941406 94.949219 2.277344 76.503906 8.671875 59.90625 C 15.148438 43.109375 26.726562 28.433594 41.597656 18.269531 C 57.492188 7.398438 77.230469 2.414062 96.382812 3.707031 C 114.082031 4.886719 131.269531 11.359375 145.320312 22.191406 C 159.957031 33.496094 170.828125 49.347656 176.242188 67.007812 C 181.460938 84.039062 181.382812 102.484375 176.164062 119.476562 C 170.90625 136.585938 160.46875 151.972656 146.457031 163.117188 C 142.492188 166.296875 138.214844 169.160156 133.742188 171.59375 C 132.527344 172.261719 133.664062 171.671875 134.214844 171.359375 C 150.265625 162.644531 163.488281 149.578125 171.886719 133.292969 C 180.324219 116.886719 183.582031 97.972656 180.992188 79.683594 C 178.324219 60.730469 169.453125 42.835938 155.992188 29.21875 C 143.003906 16.03125 125.933594 7.160156 107.722656 3.945312 C 89.4375 0.726562 70.363281 3.355469 53.605469 11.359375 C 37.554688 19.054688 23.742188 30.707031 14.363281 45.894531 C 4.710938 61.515625 0 80 1.058594 98.285156 C 2.160156 117.4375 9.574219 136.039062 21.898438 150.753906 C 33.789062 164.921875 50.035156 175.164062 67.929688 179.835938 C 85.90625 184.542969 105.210938 183.484375 122.558594 176.8125 C 126.402344 175.320312 130.132812 173.554688 133.78125 171.59375 C 134.292969 171.359375 135.46875 170.691406 134.214844 171.359375 Z M 134.214844 171.359375 " fill-opacity="1" fill-rule="nonzero"/><path fill="#ea4335" d="M 27.234375 155.308594 C 15.109375 141.609375 7.339844 124.5 5.179688 106.332031 C 3.101562 88.671875 6.316406 70.539062 14.480469 54.726562 C 23.152344 37.851562 37.554688 23.332031 54.824219 15.324219 C 71.148438 7.75 89.671875 5.355469 107.410156 8.339844 C 143.789062 14.5 173.417969 43.421875 180.363281 79.683594 C 183.660156 96.953125 181.816406 115.082031 175.027344 131.289062 C 167.84375 148.519531 155.167969 163.234375 139.277344 173.046875 C 107.761719 192.429688 65.222656 188.152344 37.046875 164.804688 C 33.554688 161.859375 30.296875 158.683594 27.234375 155.308594 C 27.117188 155.1875 25.585938 156.367188 25.46875 156.25 C 38.105469 170.335938 54.902344 180.226562 73.425781 184.230469 C 91.515625 188.152344 110.707031 186.308594 127.738281 179.011719 C 143.945312 172.023438 158.230469 160.761719 168.199219 146.164062 C 178.675781 130.820312 184.132812 112.257812 183.699219 93.695312 C 183.269531 74.976562 176.910156 56.609375 165.570312 41.695312 C 154.070312 26.546875 137.863281 15.246094 119.574219 9.832031 C 101.914062 4.570312 82.648438 4.925781 65.183594 10.890625 C 48.582031 16.582031 33.4375 26.941406 22.449219 40.636719 C 10.832031 55.117188 3.964844 73.167969 2.941406 91.730469 C 1.921875 110.410156 6.828125 129.171875 16.914062 144.90625 C 19.464844 148.910156 22.367188 152.675781 25.507812 156.210938 C 25.625 156.367188 27.15625 155.1875 27.234375 155.308594 Z M 27.234375 155.308594 " fill-opacity="1" fill-rule="nonzero"/><g clip-path="url(#08d84b1f24)"><path fill="#5e5e5e" d="M 97.71875 113.289062 C 105.144531 113.289062 111.136719 107.25 111.136719 99.824219 L 111.183594 72.898438 C 111.183594 65.449219 105.167969 59.433594 97.71875 59.433594 C 90.292969 59.433594 84.253906 65.449219 84.253906 72.898438 L 84.253906 99.824219 C 84.253906 107.25 90.292969 113.289062 97.71875 113.289062 Z M 121.503906 99.824219 C 121.503906 113.289062 110.128906 122.710938 97.71875 122.710938 C 85.332031 122.710938 73.933594 113.289062 73.933594 99.824219 L 66.304688 99.824219 C 66.304688 115.148438 78.511719 127.804688 93.230469 129.980469 L 93.230469 144.703125 L 102.207031 144.703125 L 102.207031 129.980469 C 116.925781 127.804688 129.132812 115.148438 129.132812 99.824219 Z M 121.503906 99.824219 " fill-opacity="1" fill-rule="nonzero"/></g></svg>